# MagicaVoxel @ Ephtracy

# group
o 

# material
mtllib arm-chair.mtl
usemtl palette

# normals
vn -1 0 0
vn 1 0 0
vn 0 0 1
vn 0 0 -1
vn 0 -1 0
vn 0 1 0

# texcoords
vt 0.0410156 0.5
vt 0.0449219 0.5
vt 0.341797 0.5
vt 0.361328 0.5
vt 0.365234 0.5
vt 0.369141 0.5

# verts
v -1.1 0 0.4
v -1.1 0 0.3
v -1.1 0 -0.5
v -1.1 0.3 0.5
v -1.1 0.3 0.4
v -1.1 0.3 0.3
v -1.1 0.3 0.2
v -1.1 0.3 0.1
v -1.1 0.3 0
v -1.1 0.3 -0.1
v -1.1 0.3 -0.2
v -1.1 0.4 0.5
v -1.1 0.4 0.4
v -1.1 0.4 0.3
v -1.1 0.4 0.2
v -1.1 0.4 0.1
v -1.1 0.4 0
v -1.1 0.4 -0.1
v -1.1 0.4 -0.2
v -1.1 0.5 0.3
v -1.1 0.5 0.2
v -1.1 0.5 0.1
v -1.1 0.5 0
v -1.1 0.5 -0.1
v -1.1 0.5 -0.2
v -1.1 0.6 0.5
v -1.1 0.6 0.4
v -1.1 0.6 0.3
v -1.1 0.6 0.2
v -1.1 0.6 0.1
v -1.1 0.6 0
v -1.1 0.6 -0.1
v -1.1 0.6 -0.2
v -1.1 0.7 0.5
v -1.1 0.7 0.3
v -1.1 0.7 0.2
v -1.1 0.7 0.1
v -1.1 0.7 0
v -1.1 0.7 -0.1
v -1.1 0.7 -0.2
v -1.1 1 -0.3
v -1.1 1 -0.5
v -1.1 1.1 -0.2
v -1.1 1.1 -0.3
v -1.1 1.1 -0.5
v -0.9 0.4 0.5
v -0.9 0.4 0.4
v -0.9 0.6 0.5
v -0.9 0.6 0.4
v -0.7 0.5 0.4
v -0.7 0.5 0
v -0.7 0.5 -0.1
v -0.7 0.5 -0.2
v -0.7 0.6 0.4
v -0.7 0.6 0
v -0.7 0.6 -0.1
v -0.7 0.6 -0.2
v 0 0 0.4
v 0 0 0.3
v 0 0.3 0.4
v 0 0.3 0.3
v 0.1 0.3 0.5
v 0.1 0.3 0.4
v 0.1 0.4 0.5
v 0.1 0.4 0.4
v 0.1 0.5 0.5
v 0.1 0.5 0.3
v 0.1 0.5 -0.2
v 0.1 0.6 0.5
v 0.1 0.6 0.4
v 0.1 0.6 0.2
v 0.1 0.6 0.1
v 0.1 0.6 0
v 0.1 0.6 -0.1
v 0.1 0.6 -0.2
v 0.1 0.7 0.4
v 0.1 0.7 0.3
v 0.1 0.7 0.2
v 0.1 0.7 0.1
v 0.1 0.7 0
v 0.1 0.7 -0.1
v 0.1 0.7 -0.2
v 0.2 0.6 0.5
v 0.2 0.6 0.4
v 0.2 0.7 0.5
v 0.2 0.7 0.4
v -0.9 0.6 0.5
v -0.9 0.6 0.4
v -0.9 0.7 0.5
v -0.9 0.7 0.4
v -0.8 0.3 0.5
v -0.8 0.3 0.4
v -0.8 0.4 0.5
v -0.8 0.4 0.4
v -0.8 0.5 0.5
v -0.8 0.5 0.3
v -0.8 0.5 -0.2
v -0.8 0.6 0.5
v -0.8 0.6 0.4
v -0.8 0.6 0.2
v -0.8 0.6 0.1
v -0.8 0.6 0
v -0.8 0.6 -0.1
v -0.8 0.6 -0.2
v -0.8 0.7 0.4
v -0.8 0.7 0.3
v -0.8 0.7 0.2
v -0.8 0.7 0.1
v -0.8 0.7 0
v -0.8 0.7 -0.1
v -0.8 0.7 -0.2
v -0.7 0 0.4
v -0.7 0 0.3
v -0.7 0.3 0.4
v -0.7 0.3 0.3
v 0 0.5 0.4
v 0 0.5 0
v 0 0.5 -0.1
v 0 0.5 -0.2
v 0 0.6 0.4
v 0 0.6 0
v 0 0.6 -0.1
v 0 0.6 -0.2
v 0.2 0.4 0.5
v 0.2 0.4 0.4
v 0.2 0.6 0.5
v 0.2 0.6 0.4
v 0.4 0 0.4
v 0.4 0 0.3
v 0.4 0 -0.5
v 0.4 0.3 0.5
v 0.4 0.3 0.4
v 0.4 0.3 0.3
v 0.4 0.3 0.2
v 0.4 0.3 0.1
v 0.4 0.3 0
v 0.4 0.3 -0.1
v 0.4 0.3 -0.2
v 0.4 0.4 0.5
v 0.4 0.4 0.4
v 0.4 0.4 0.3
v 0.4 0.4 0.2
v 0.4 0.4 0.1
v 0.4 0.4 0
v 0.4 0.4 -0.1
v 0.4 0.4 -0.2
v 0.4 0.5 0.3
v 0.4 0.5 0.2
v 0.4 0.5 0.1
v 0.4 0.5 0
v 0.4 0.5 -0.1
v 0.4 0.5 -0.2
v 0.4 0.6 0.5
v 0.4 0.6 0.4
v 0.4 0.6 0.3
v 0.4 0.6 0.2
v 0.4 0.6 0.1
v 0.4 0.6 0
v 0.4 0.6 -0.1
v 0.4 0.6 -0.2
v 0.4 0.7 0.5
v 0.4 0.7 0.3
v 0.4 0.7 0.2
v 0.4 0.7 0.1
v 0.4 0.7 0
v 0.4 0.7 -0.1
v 0.4 0.7 -0.2
v 0.4 1 -0.3
v 0.4 1 -0.5
v 0.4 1.1 -0.2
v 0.4 1.1 -0.3
v 0.4 1.1 -0.5
v -1.1 0.3 0.5
v -1.1 0.4 0.5
v -1.1 0.6 0.5
v -1.1 0.7 0.5
v -0.9 0.4 0.5
v -0.9 0.6 0.5
v -0.9 0.7 0.5
v -0.8 0.3 0.5
v -0.8 0.4 0.5
v -0.8 0.5 0.5
v -0.8 0.6 0.5
v 0.1 0.3 0.5
v 0.1 0.4 0.5
v 0.1 0.5 0.5
v 0.1 0.6 0.5
v 0.2 0.4 0.5
v 0.2 0.6 0.5
v 0.2 0.7 0.5
v 0.4 0.3 0.5
v 0.4 0.4 0.5
v 0.4 0.6 0.5
v 0.4 0.7 0.5
v -1.1 0 0.4
v -1.1 0.3 0.4
v -1.1 0.4 0.4
v -1.1 0.6 0.4
v -0.9 0.4 0.4
v -0.9 0.6 0.4
v -0.9 0.7 0.4
v -0.8 0.3 0.4
v -0.8 0.4 0.4
v -0.8 0.6 0.4
v -0.8 0.7 0.4
v -0.7 0 0.4
v -0.7 0.3 0.4
v -0.7 0.5 0.4
v -0.7 0.6 0.4
v 0 0 0.4
v 0 0.3 0.4
v 0 0.5 0.4
v 0 0.6 0.4
v 0.1 0.3 0.4
v 0.1 0.4 0.4
v 0.1 0.6 0.4
v 0.1 0.7 0.4
v 0.2 0.4 0.4
v 0.2 0.6 0.4
v 0.2 0.7 0.4
v 0.4 0 0.4
v 0.4 0.3 0.4
v 0.4 0.4 0.4
v 0.4 0.6 0.4
v -0.7 0 0.3
v -0.7 0.3 0.3
v 0 0 0.3
v 0 0.3 0.3
v -0.7 0.5 -0.1
v -0.7 0.6 -0.1
v 0 0.5 -0.1
v 0 0.6 -0.1
v -1.1 0.7 -0.2
v -1.1 1.1 -0.2
v -0.9 0.7 -0.2
v -0.8 0.5 -0.2
v -0.8 0.6 -0.2
v -0.8 0.7 -0.2
v -0.7 0.5 -0.2
v -0.7 0.6 -0.2
v 0 0.5 -0.2
v 0 0.6 -0.2
v 0.1 0.5 -0.2
v 0.1 0.6 -0.2
v 0.1 0.7 -0.2
v 0.2 0.7 -0.2
v 0.4 0.7 -0.2
v 0.4 1.1 -0.2
v -0.7 0.5 0
v -0.7 0.6 0
v 0 0.5 0
v 0 0.6 0
v -1.1 0 -0.5
v -1.1 1 -0.5
v -1.1 1.1 -0.5
v -1 0 -0.5
v -1 1 -0.5
v 0.3 0 -0.5
v 0.3 1 -0.5
v 0.4 0 -0.5
v 0.4 1 -0.5
v 0.4 1.1 -0.5
v -1.1 0 0.4
v -0.7 0 0.4
v 0 0 0.4
v 0.4 0 0.4
v -1.1 0 0.3
v -1 0 0.3
v -0.7 0 0.3
v 0 0 0.3
v 0.3 0 0.3
v 0.4 0 0.3
v -0.7 0 0.2
v 0 0 0.2
v -1.1 0 -0.5
v -1 0 -0.5
v 0.3 0 -0.5
v 0.4 0 -0.5
v -1.1 0.3 0.5
v -0.8 0.3 0.5
v 0.1 0.3 0.5
v 0.4 0.3 0.5
v -1.1 0.3 0.4
v -0.8 0.3 0.4
v -0.7 0.3 0.4
v 0 0.3 0.4
v 0.1 0.3 0.4
v 0.4 0.3 0.4
v -0.7 0.3 0.3
v 0 0.3 0.3
v -0.8 0.4 0.5
v 0.1 0.4 0.5
v -0.8 0.4 0.4
v 0.1 0.4 0.4
v -1.1 0.6 0.5
v -0.9 0.6 0.5
v 0.2 0.6 0.5
v 0.4 0.6 0.5
v -1.1 0.6 0.4
v -0.9 0.6 0.4
v 0.2 0.6 0.4
v 0.4 0.6 0.4
v -1.1 0.4 0.5
v -0.9 0.4 0.5
v 0.2 0.4 0.5
v 0.4 0.4 0.5
v -1.1 0.4 0.4
v -0.9 0.4 0.4
v 0.2 0.4 0.4
v 0.4 0.4 0.4
v -0.8 0.5 0.5
v 0.1 0.5 0.5
v -0.7 0.5 0.4
v 0 0.5 0.4
v -0.8 0.5 0.3
v 0.1 0.5 0.3
v -0.7 0.5 0
v 0 0.5 0
v -0.7 0.5 -0.1
v 0 0.5 -0.1
v -0.8 0.5 -0.2
v -0.7 0.5 -0.2
v 0 0.5 -0.2
v 0.1 0.5 -0.2
v -0.9 0.6 0.5
v -0.8 0.6 0.5
v 0.1 0.6 0.5
v 0.2 0.6 0.5
v -0.9 0.6 0.4
v -0.8 0.6 0.4
v -0.7 0.6 0.4
v 0 0.6 0.4
v 0.1 0.6 0.4
v 0.2 0.6 0.4
v -0.7 0.6 0
v 0 0.6 0
v -0.7 0.6 -0.1
v 0 0.6 -0.1
v -0.7 0.6 -0.2
v 0 0.6 -0.2
v -1.1 0.7 0.5
v -0.9 0.7 0.5
v 0.2 0.7 0.5
v 0.4 0.7 0.5
v -0.9 0.7 0.4
v -0.8 0.7 0.4
v 0.1 0.7 0.4
v 0.2 0.7 0.4
v -1.1 0.7 0.3
v -1 0.7 0.3
v -0.9 0.7 0.3
v -0.8 0.7 0.3
v 0.1 0.7 0.3
v 0.2 0.7 0.3
v 0.3 0.7 0.3
v 0.4 0.7 0.3
v -1.1 0.7 0.2
v -1 0.7 0.2
v -0.9 0.7 0.2
v -0.8 0.7 0.2
v 0.1 0.7 0.2
v 0.2 0.7 0.2
v 0.3 0.7 0.2
v 0.4 0.7 0.2
v -1.1 0.7 0.1
v -1 0.7 0.1
v -0.9 0.7 0.1
v -0.8 0.7 0.1
v 0.1 0.7 0.1
v 0.2 0.7 0.1
v 0.3 0.7 0.1
v 0.4 0.7 0.1
v -1.1 0.7 0
v -1 0.7 0
v -0.9 0.7 0
v -0.8 0.7 0
v 0.1 0.7 0
v 0.2 0.7 0
v 0.3 0.7 0
v 0.4 0.7 0
v -1.1 0.7 -0.1
v -1 0.7 -0.1
v -0.9 0.7 -0.1
v -0.8 0.7 -0.1
v 0.1 0.7 -0.1
v 0.2 0.7 -0.1
v 0.3 0.7 -0.1
v 0.4 0.7 -0.1
v -1.1 0.7 -0.2
v -0.9 0.7 -0.2
v -0.8 0.7 -0.2
v 0.1 0.7 -0.2
v 0.2 0.7 -0.2
v 0.4 0.7 -0.2
v -1.1 1.1 -0.2
v 0.4 1.1 -0.2
v -1.1 1.1 -0.3
v 0.4 1.1 -0.3
v -1.1 1.1 -0.5
v 0.4 1.1 -0.5

# faces
f 5/1/1 2/1/1 1/1/1
f 6/2/1 3/2/1 2/2/1
f 6/1/1 2/1/1 5/1/1
f 7/2/1 3/2/1 6/2/1
f 8/2/1 3/2/1 7/2/1
f 9/2/1 3/2/1 8/2/1
f 10/2/1 3/2/1 9/2/1
f 11/2/1 3/2/1 10/2/1
f 12/1/1 5/1/1 4/1/1
f 13/2/1 6/2/1 5/2/1
f 13/1/1 5/1/1 12/1/1
f 14/6/1 7/6/1 6/6/1
f 14/2/1 6/2/1 13/2/1
f 15/5/1 8/5/1 7/5/1
f 15/6/1 7/6/1 14/6/1
f 16/4/1 9/4/1 8/4/1
f 16/5/1 8/5/1 15/5/1
f 17/5/1 10/5/1 9/5/1
f 17/4/1 9/4/1 16/4/1
f 18/6/1 11/6/1 10/6/1
f 18/5/1 10/5/1 17/5/1
f 19/2/1 3/2/1 11/2/1
f 19/6/1 11/6/1 18/6/1
f 20/1/1 14/1/1 13/1/1
f 20/5/1 15/5/1 14/5/1
f 21/6/1 16/6/1 15/6/1
f 21/5/1 15/5/1 20/5/1
f 22/5/1 17/5/1 16/5/1
f 22/6/1 16/6/1 21/6/1
f 23/6/1 18/6/1 17/6/1
f 23/5/1 17/5/1 22/5/1
f 24/5/1 19/5/1 18/5/1
f 24/6/1 18/6/1 23/6/1
f 25/2/1 3/2/1 19/2/1
f 25/5/1 19/5/1 24/5/1
f 27/1/1 20/1/1 13/1/1
f 28/6/1 21/6/1 20/6/1
f 28/1/1 20/1/1 27/1/1
f 29/5/1 22/5/1 21/5/1
f 29/6/1 21/6/1 28/6/1
f 30/6/1 23/6/1 22/6/1
f 30/5/1 22/5/1 29/5/1
f 31/4/1 24/4/1 23/4/1
f 31/6/1 23/6/1 30/6/1
f 32/6/1 25/6/1 24/6/1
f 32/4/1 24/4/1 31/4/1
f 33/2/1 3/2/1 25/2/1
f 33/6/1 25/6/1 32/6/1
f 34/1/1 28/1/1 27/1/1
f 34/1/1 27/1/1 26/1/1
f 35/4/1 29/4/1 28/4/1
f 35/1/1 28/1/1 34/1/1
f 36/5/1 30/5/1 29/5/1
f 36/4/1 29/4/1 35/4/1
f 37/4/1 31/4/1 30/4/1
f 37/5/1 30/5/1 36/5/1
f 38/6/1 32/6/1 31/6/1
f 38/4/1 31/4/1 37/4/1
f 39/5/1 33/5/1 32/5/1
f 39/6/1 32/6/1 38/6/1
f 40/2/1 3/2/1 33/2/1
f 40/5/1 33/5/1 39/5/1
f 41/2/1 3/2/1 40/2/1
f 42/2/1 3/2/1 41/2/1
f 43/2/1 41/2/1 40/2/1
f 44/1/1 42/1/1 41/1/1
f 44/2/1 41/2/1 43/2/1
f 45/1/1 42/1/1 44/1/1
f 48/1/1 47/1/1 46/1/1
f 49/1/1 47/1/1 48/1/1
f 54/1/1 51/1/1 50/1/1
f 55/1/1 51/1/1 54/1/1
f 56/1/1 53/1/1 52/1/1
f 57/1/1 53/1/1 56/1/1
f 60/1/1 59/1/1 58/1/1
f 61/1/1 59/1/1 60/1/1
f 64/1/1 63/1/1 62/1/1
f 65/1/1 63/1/1 64/1/1
f 69/1/1 67/1/1 66/1/1
f 70/1/1 67/1/1 69/1/1
f 71/6/1 68/6/1 67/6/1
f 72/6/1 68/6/1 71/6/1
f 73/6/1 68/6/1 72/6/1
f 74/6/1 68/6/1 73/6/1
f 75/6/1 68/6/1 74/6/1
f 76/1/1 67/1/1 70/1/1
f 77/6/1 71/6/1 67/6/1
f 77/1/1 67/1/1 76/1/1
f 78/4/1 72/4/1 71/4/1
f 78/6/1 71/6/1 77/6/1
f 79/6/1 73/6/1 72/6/1
f 79/4/1 72/4/1 78/4/1
f 80/4/1 74/4/1 73/4/1
f 80/6/1 73/6/1 79/6/1
f 81/6/1 75/6/1 74/6/1
f 81/4/1 74/4/1 80/4/1
f 82/6/1 75/6/1 81/6/1
f 85/1/1 84/1/1 83/1/1
f 86/1/1 84/1/1 85/1/1
f 87/1/2 88/1/2 89/1/2
f 89/1/2 88/1/2 90/1/2
f 91/1/2 92/1/2 93/1/2
f 93/1/2 92/1/2 94/1/2
f 95/1/2 96/1/2 98/1/2
f 98/1/2 96/1/2 99/1/2
f 96/6/2 97/6/2 100/6/2
f 100/6/2 97/6/2 101/6/2
f 101/6/2 97/6/2 102/6/2
f 102/6/2 97/6/2 103/6/2
f 103/6/2 97/6/2 104/6/2
f 99/1/2 96/1/2 105/1/2
f 96/6/2 100/6/2 106/6/2
f 105/1/2 96/1/2 106/1/2
f 100/4/2 101/4/2 107/4/2
f 106/6/2 100/6/2 107/6/2
f 101/6/2 102/6/2 108/6/2
f 107/4/2 101/4/2 108/4/2
f 102/4/2 103/4/2 109/4/2
f 108/6/2 102/6/2 109/6/2
f 103/6/2 104/6/2 110/6/2
f 109/4/2 103/4/2 110/4/2
f 110/6/2 104/6/2 111/6/2
f 112/1/2 113/1/2 114/1/2
f 114/1/2 113/1/2 115/1/2
f 116/1/2 117/1/2 120/1/2
f 120/1/2 117/1/2 121/1/2
f 118/1/2 119/1/2 122/1/2
f 122/1/2 119/1/2 123/1/2
f 124/1/2 125/1/2 126/1/2
f 126/1/2 125/1/2 127/1/2
f 128/1/2 129/1/2 132/1/2
f 129/2/2 130/2/2 133/2/2
f 132/1/2 129/1/2 133/1/2
f 133/2/2 130/2/2 134/2/2
f 134/2/2 130/2/2 135/2/2
f 135/2/2 130/2/2 136/2/2
f 136/2/2 130/2/2 137/2/2
f 137/2/2 130/2/2 138/2/2
f 131/1/2 132/1/2 139/1/2
f 132/2/2 133/2/2 140/2/2
f 139/1/2 132/1/2 140/1/2
f 133/6/2 134/6/2 141/6/2
f 140/2/2 133/2/2 141/2/2
f 134/5/2 135/5/2 142/5/2
f 141/6/2 134/6/2 142/6/2
f 135/4/2 136/4/2 143/4/2
f 142/5/2 135/5/2 143/5/2
f 136/5/2 137/5/2 144/5/2
f 143/4/2 136/4/2 144/4/2
f 137/6/2 138/6/2 145/6/2
f 144/5/2 137/5/2 145/5/2
f 138/2/2 130/2/2 146/2/2
f 145/6/2 138/6/2 146/6/2
f 140/1/2 141/1/2 147/1/2
f 141/5/2 142/5/2 147/5/2
f 142/6/2 143/6/2 148/6/2
f 147/5/2 142/5/2 148/5/2
f 143/5/2 144/5/2 149/5/2
f 148/6/2 143/6/2 149/6/2
f 144/6/2 145/6/2 150/6/2
f 149/5/2 144/5/2 150/5/2
f 145/5/2 146/5/2 151/5/2
f 150/6/2 145/6/2 151/6/2
f 146/2/2 130/2/2 152/2/2
f 151/5/2 146/5/2 152/5/2
f 140/1/2 147/1/2 154/1/2
f 147/6/2 148/6/2 155/6/2
f 154/1/2 147/1/2 155/1/2
f 148/5/2 149/5/2 156/5/2
f 155/6/2 148/6/2 156/6/2
f 149/6/2 150/6/2 157/6/2
f 156/5/2 149/5/2 157/5/2
f 150/4/2 151/4/2 158/4/2
f 157/6/2 150/6/2 158/6/2
f 151/6/2 152/6/2 159/6/2
f 158/4/2 151/4/2 159/4/2
f 152/2/2 130/2/2 160/2/2
f 159/6/2 152/6/2 160/6/2
f 154/1/2 155/1/2 161/1/2
f 153/1/2 154/1/2 161/1/2
f 155/4/2 156/4/2 162/4/2
f 161/1/2 155/1/2 162/1/2
f 156/5/2 157/5/2 163/5/2
f 162/4/2 156/4/2 163/4/2
f 157/4/2 158/4/2 164/4/2
f 163/5/2 157/5/2 164/5/2
f 158/6/2 159/6/2 165/6/2
f 164/4/2 158/4/2 165/4/2
f 159/5/2 160/5/2 166/5/2
f 165/6/2 159/6/2 166/6/2
f 160/2/2 130/2/2 167/2/2
f 166/5/2 160/5/2 167/5/2
f 167/2/2 130/2/2 168/2/2
f 168/2/2 130/2/2 169/2/2
f 167/2/2 168/2/2 170/2/2
f 168/1/2 169/1/2 171/1/2
f 170/2/2 168/2/2 171/2/2
f 171/1/2 169/1/2 172/1/2
f 177/1/3 174/1/3 173/1/3
f 178/1/3 176/1/3 175/1/3
f 179/1/3 176/1/3 178/1/3
f 180/1/3 177/1/3 173/1/3
f 180/1/3 178/1/3 177/1/3
f 181/1/3 178/1/3 180/1/3
f 182/1/3 178/1/3 181/1/3
f 183/1/3 178/1/3 182/1/3
f 185/1/3 182/1/3 181/1/3
f 186/1/3 182/1/3 185/1/3
f 188/1/3 185/1/3 184/1/3
f 188/1/3 187/1/3 186/1/3
f 188/1/3 186/1/3 185/1/3
f 189/1/3 187/1/3 188/1/3
f 191/1/3 188/1/3 184/1/3
f 192/1/3 188/1/3 191/1/3
f 193/1/3 190/1/3 189/1/3
f 194/1/3 190/1/3 193/1/3
f 199/1/3 198/1/3 197/1/3
f 200/1/3 198/1/3 199/1/3
f 202/1/3 196/1/3 195/1/3
f 204/1/3 201/1/3 200/1/3
f 205/1/3 201/1/3 204/1/3
f 206/1/3 203/1/3 202/1/3
f 206/1/3 202/1/3 195/1/3
f 207/1/3 203/1/3 206/1/3
f 211/1/3 203/1/3 207/1/3
f 212/1/3 209/1/3 208/1/3
f 213/1/3 209/1/3 212/1/3
f 214/1/3 211/1/3 210/1/3
f 214/1/3 203/1/3 211/1/3
f 215/1/3 203/1/3 214/1/3
f 219/1/3 217/1/3 216/1/3
f 220/1/3 217/1/3 219/1/3
f 221/1/3 214/1/3 210/1/3
f 222/1/3 214/1/3 221/1/3
f 223/1/3 219/1/3 218/1/3
f 224/1/3 219/1/3 223/1/3
f 227/1/3 226/1/3 225/1/3
f 228/1/3 226/1/3 227/1/3
f 231/1/3 230/1/3 229/1/3
f 232/1/3 230/1/3 231/1/3
f 235/2/3 234/2/3 233/2/3
f 238/2/3 234/2/3 235/2/3
f 239/1/3 237/1/3 236/1/3
f 240/2/3 238/2/3 237/2/3
f 240/1/3 237/1/3 239/1/3
f 242/2/3 238/2/3 240/2/3
f 243/1/3 242/1/3 241/1/3
f 244/2/3 238/2/3 242/2/3
f 244/1/3 242/1/3 243/1/3
f 245/2/3 234/2/3 238/2/3
f 245/2/3 238/2/3 244/2/3
f 246/2/3 234/2/3 245/2/3
f 247/2/3 234/2/3 246/2/3
f 248/2/3 234/2/3 247/2/3
f 249/1/4 250/1/4 251/1/4
f 251/1/4 250/1/4 252/1/4
f 253/2/4 254/2/4 256/2/4
f 254/1/4 255/1/4 257/1/4
f 256/2/4 254/2/4 257/2/4
f 256/3/4 257/3/4 258/3/4
f 257/1/4 255/1/4 259/1/4
f 258/3/4 257/3/4 259/3/4
f 258/2/4 259/2/4 260/2/4
f 259/1/4 255/1/4 261/1/4
f 260/2/4 259/2/4 261/2/4
f 261/1/4 255/1/4 262/1/4
f 267/1/5 264/1/5 263/1/5
f 268/1/5 264/1/5 267/1/5
f 269/1/5 264/1/5 268/1/5
f 270/1/5 266/1/5 265/1/5
f 271/1/5 266/1/5 270/1/5
f 272/1/5 266/1/5 271/1/5
f 273/3/5 269/3/5 268/3/5
f 273/1/5 270/1/5 269/1/5
f 274/3/5 271/3/5 270/3/5
f 274/1/5 270/1/5 273/1/5
f 275/2/5 268/2/5 267/2/5
f 276/3/5 273/3/5 268/3/5
f 276/2/5 268/2/5 275/2/5
f 276/3/5 274/3/5 273/3/5
f 277/3/5 271/3/5 274/3/5
f 277/3/5 274/3/5 276/3/5
f 277/2/5 272/2/5 271/2/5
f 278/2/5 272/2/5 277/2/5
f 283/1/5 280/1/5 279/1/5
f 284/1/5 280/1/5 283/1/5
f 287/1/5 282/1/5 281/1/5
f 288/1/5 282/1/5 287/1/5
f 289/1/5 286/1/5 285/1/5
f 290/1/5 286/1/5 289/1/5
f 293/1/5 292/1/5 291/1/5
f 294/1/5 292/1/5 293/1/5
f 299/1/5 296/1/5 295/1/5
f 300/1/5 296/1/5 299/1/5
f 301/1/5 298/1/5 297/1/5
f 302/1/5 298/1/5 301/1/5
f 303/1/6 304/1/6 307/1/6
f 307/1/6 304/1/6 308/1/6
f 305/1/6 306/1/6 309/1/6
f 309/1/6 306/1/6 310/1/6
f 311/1/6 312/1/6 313/1/6
f 313/1/6 312/1/6 314/1/6
f 311/1/6 313/1/6 315/1/6
f 314/1/6 312/1/6 316/1/6
f 315/1/6 313/1/6 317/1/6
f 314/1/6 316/1/6 318/1/6
f 315/1/6 317/1/6 319/1/6
f 317/1/6 318/1/6 319/1/6
f 318/1/6 316/1/6 320/1/6
f 319/1/6 318/1/6 320/1/6
f 315/1/6 319/1/6 321/1/6
f 321/1/6 319/1/6 322/1/6
f 320/1/6 316/1/6 323/1/6
f 323/1/6 316/1/6 324/1/6
f 325/1/6 326/1/6 329/1/6
f 329/1/6 326/1/6 330/1/6
f 327/1/6 328/1/6 333/1/6
f 333/1/6 328/1/6 334/1/6
f 331/1/6 332/1/6 335/1/6
f 335/1/6 332/1/6 336/1/6
f 337/1/6 338/1/6 339/1/6
f 339/1/6 338/1/6 340/1/6
f 341/1/6 342/1/6 345/1/6
f 343/1/6 344/1/6 348/1/6
f 345/1/6 346/1/6 349/1/6
f 341/1/6 345/1/6 349/1/6
f 349/1/6 346/1/6 350/1/6
f 350/1/6 346/1/6 351/1/6
f 351/1/6 346/1/6 352/1/6
f 347/1/6 348/1/6 353/1/6
f 348/1/6 344/1/6 354/1/6
f 353/1/6 348/1/6 354/1/6
f 354/1/6 344/1/6 355/1/6
f 355/1/6 344/1/6 356/1/6
f 349/4/6 350/4/6 357/4/6
f 350/5/6 351/5/6 358/5/6
f 357/4/6 350/4/6 358/4/6
f 351/6/6 352/6/6 359/6/6
f 358/5/6 351/5/6 359/5/6
f 359/6/6 352/6/6 360/6/6
f 353/6/6 354/6/6 361/6/6
f 354/5/6 355/5/6 362/5/6
f 361/6/6 354/6/6 362/6/6
f 355/4/6 356/4/6 363/4/6
f 362/5/6 355/5/6 363/5/6
f 363/4/6 356/4/6 364/4/6
f 357/5/6 358/5/6 365/5/6
f 358/6/6 359/6/6 366/6/6
f 365/5/6 358/5/6 366/5/6
f 359/4/6 360/4/6 367/4/6
f 366/6/6 359/6/6 367/6/6
f 367/4/6 360/4/6 368/4/6
f 361/4/6 362/4/6 369/4/6
f 362/6/6 363/6/6 370/6/6
f 369/4/6 362/4/6 370/4/6
f 363/5/6 364/5/6 371/5/6
f 370/6/6 363/6/6 371/6/6
f 371/5/6 364/5/6 372/5/6
f 365/4/6 366/4/6 373/4/6
f 366/5/6 367/5/6 374/5/6
f 373/4/6 366/4/6 374/4/6
f 367/6/6 368/6/6 375/6/6
f 374/5/6 367/5/6 375/5/6
f 375/6/6 368/6/6 376/6/6
f 369/6/6 370/6/6 377/6/6
f 370/5/6 371/5/6 378/5/6
f 377/6/6 370/6/6 378/6/6
f 371/4/6 372/4/6 379/4/6
f 378/5/6 371/5/6 379/5/6
f 379/4/6 372/4/6 380/4/6
f 373/6/6 374/6/6 381/6/6
f 375/4/6 376/4/6 382/4/6
f 381/6/6 374/6/6 382/6/6
f 374/4/6 375/4/6 382/4/6
f 382/4/6 376/4/6 383/4/6
f 383/4/6 376/4/6 384/4/6
f 377/4/6 378/4/6 385/4/6
f 378/4/6 379/4/6 385/4/6
f 385/4/6 379/4/6 386/4/6
f 379/6/6 380/6/6 387/6/6
f 386/4/6 379/4/6 387/4/6
f 387/6/6 380/6/6 388/6/6
f 382/5/6 383/5/6 389/5/6
f 381/5/6 382/5/6 389/5/6
f 383/6/6 384/6/6 390/6/6
f 389/5/6 383/5/6 390/5/6
f 390/6/6 384/6/6 391/6/6
f 385/6/6 386/6/6 392/6/6
f 387/5/6 388/5/6 393/5/6
f 392/6/6 386/6/6 393/6/6
f 386/5/6 387/5/6 393/5/6
f 393/5/6 388/5/6 394/5/6
f 395/2/6 396/2/6 397/2/6
f 397/2/6 396/2/6 398/2/6
f 397/1/6 398/1/6 399/1/6
f 399/1/6 398/1/6 400/1/6
