# MagicaVoxel @ Ephtracy

# group
o 

# material
mtllib bathtub.mtl
usemtl palette

# normals
vn -1 0 0
vn 1 0 0
vn 0 0 1
vn 0 0 -1
vn 0 -1 0
vn 0 1 0

# texcoords
vt 0.966797 0.5
vt 0.970703 0.5

# verts
v -1 0 0.5
v -1 0 -0.4
v -1 0.6 0.5
v -1 0.6 -0.4
v -1 1.5 0.1
v -1 1.5 0
v -1 2 0.1
v -1 2 0
v -0.9 0.6 0.3
v -0.9 0.6 0.2
v -0.9 0.6 0.1
v -0.9 0.6 0
v -0.9 0.6 -0.1
v -0.9 0.6 -0.2
v -0.9 0.7 0.3
v -0.9 0.7 0.2
v -0.9 0.7 -0.1
v -0.9 0.7 -0.2
v -0.9 0.9 0.1
v -0.9 0.9 0
v -0.8 1.7 0.2
v -0.8 1.7 -0.1
v -0.8 1.8 0.2
v -0.8 1.8 0.1
v -0.8 1.8 0
v -0.8 1.8 -0.1
v -0.8 1.9 0.1
v -0.8 1.9 0
v 0.8 0.2 0.4
v 0.8 0.2 -0.3
v 0.8 0.6 0.4
v 0.8 0.6 -0.3
v -0.9 1.5 0.1
v -0.9 1.5 0
v -0.9 1.9 0.1
v -0.9 1.9 0
v -0.8 0.6 0.3
v -0.8 0.6 0.2
v -0.8 0.6 0.1
v -0.8 0.6 0
v -0.8 0.6 -0.1
v -0.8 0.6 -0.2
v -0.8 0.7 0.3
v -0.8 0.7 0.2
v -0.8 0.7 -0.1
v -0.8 0.7 -0.2
v -0.8 0.8 0.1
v -0.8 0.8 0
v -0.7 0.2 0.4
v -0.7 0.2 -0.3
v -0.7 0.6 0.4
v -0.7 0.6 -0.3
v -0.7 0.8 0.1
v -0.7 0.8 0
v -0.7 0.9 0.1
v -0.7 0.9 0
v -0.7 1.8 0.1
v -0.7 1.8 0
v -0.7 2 0.1
v -0.7 2 0
v -0.6 1.7 0.2
v -0.6 1.7 -0.1
v -0.6 1.8 0.2
v -0.6 1.8 -0.1
v 1 0 0.5
v 1 0 -0.4
v 1 0.6 0.5
v 1 0.6 -0.4
v -1 0 0.5
v -1 0.6 0.5
v 1 0 0.5
v 1 0.6 0.5
v -0.9 0.6 0.3
v -0.9 0.7 0.3
v -0.8 0.6 0.3
v -0.8 0.7 0.3
v -0.8 1.7 0.2
v -0.8 1.8 0.2
v -0.6 1.7 0.2
v -0.6 1.8 0.2
v -1 1.5 0.1
v -1 2 0.1
v -0.9 0.6 0.1
v -0.9 0.9 0.1
v -0.9 1.5 0.1
v -0.9 1.9 0.1
v -0.8 0.6 0.1
v -0.8 0.8 0.1
v -0.8 1.8 0.1
v -0.8 1.9 0.1
v -0.7 0.8 0.1
v -0.7 0.9 0.1
v -0.7 1.8 0.1
v -0.7 2 0.1
v -0.9 0.6 -0.1
v -0.9 0.7 -0.1
v -0.8 0.6 -0.1
v -0.8 0.7 -0.1
v -0.7 0.2 -0.3
v -0.7 0.6 -0.3
v 0.8 0.2 -0.3
v 0.8 0.6 -0.3
v -0.7 0.2 0.4
v -0.7 0.6 0.4
v 0.8 0.2 0.4
v 0.8 0.6 0.4
v -0.9 0.6 0.2
v -0.9 0.7 0.2
v -0.8 0.6 0.2
v -0.8 0.7 0.2
v -1 1.5 0
v -1 2 0
v -0.9 0.6 0
v -0.9 0.9 0
v -0.9 1.5 0
v -0.9 1.9 0
v -0.8 0.6 0
v -0.8 0.8 0
v -0.8 1.8 0
v -0.8 1.9 0
v -0.7 0.8 0
v -0.7 0.9 0
v -0.7 1.8 0
v -0.7 2 0
v -0.8 1.7 -0.1
v -0.8 1.8 -0.1
v -0.6 1.7 -0.1
v -0.6 1.8 -0.1
v -0.9 0.6 -0.2
v -0.9 0.7 -0.2
v -0.8 0.6 -0.2
v -0.8 0.7 -0.2
v -1 0 -0.4
v -1 0.6 -0.4
v 1 0 -0.4
v 1 0.6 -0.4
v -1 0 0.5
v 1 0 0.5
v -1 0 -0.4
v 1 0 -0.4
v -0.8 0.8 0.1
v -0.7 0.8 0.1
v -0.8 0.8 0
v -0.7 0.8 0
v -1 1.5 0.1
v -0.9 1.5 0.1
v -1 1.5 0
v -0.9 1.5 0
v -0.8 1.7 0.2
v -0.6 1.7 0.2
v -0.8 1.7 -0.1
v -0.6 1.7 -0.1
v -0.9 1.9 0.1
v -0.8 1.9 0.1
v -0.9 1.9 0
v -0.8 1.9 0
v -0.7 0.2 0.4
v 0.8 0.2 0.4
v -0.7 0.2 -0.3
v 0.8 0.2 -0.3
v -1 0.6 0.5
v 1 0.6 0.5
v -0.7 0.6 0.4
v 0.8 0.6 0.4
v -0.9 0.6 0.3
v -0.8 0.6 0.3
v -0.9 0.6 0.2
v -0.8 0.6 0.2
v -0.9 0.6 0.1
v -0.8 0.6 0.1
v -0.9 0.6 0
v -0.8 0.6 0
v -0.9 0.6 -0.1
v -0.8 0.6 -0.1
v -0.9 0.6 -0.2
v -0.8 0.6 -0.2
v -0.7 0.6 -0.3
v 0.8 0.6 -0.3
v -1 0.6 -0.4
v 1 0.6 -0.4
v -0.9 0.7 0.3
v -0.8 0.7 0.3
v -0.9 0.7 0.2
v -0.8 0.7 0.2
v -0.9 0.7 -0.1
v -0.8 0.7 -0.1
v -0.9 0.7 -0.2
v -0.8 0.7 -0.2
v -0.9 0.9 0.1
v -0.7 0.9 0.1
v -0.9 0.9 0
v -0.7 0.9 0
v -0.8 1.8 0.2
v -0.6 1.8 0.2
v -0.8 1.8 0.1
v -0.7 1.8 0.1
v -0.8 1.8 0
v -0.7 1.8 0
v -0.8 1.8 -0.1
v -0.6 1.8 -0.1
v -1 2 0.1
v -0.7 2 0.1
v -1 2 0
v -0.7 2 0

# faces
f 3/1/1 2/1/1 1/1/1
f 4/1/1 2/1/1 3/1/1
f 7/2/1 6/2/1 5/2/1
f 8/2/1 6/2/1 7/2/1
f 15/2/1 10/2/1 9/2/1
f 16/2/1 10/2/1 15/2/1
f 17/2/1 14/2/1 13/2/1
f 18/2/1 14/2/1 17/2/1
f 19/2/1 12/2/1 11/2/1
f 20/2/1 12/2/1 19/2/1
f 23/2/1 22/2/1 21/2/1
f 24/2/1 22/2/1 23/2/1
f 25/2/1 22/2/1 24/2/1
f 26/2/1 22/2/1 25/2/1
f 27/2/1 25/2/1 24/2/1
f 28/2/1 25/2/1 27/2/1
f 31/1/1 30/1/1 29/1/1
f 32/1/1 30/1/1 31/1/1
f 33/2/2 34/2/2 35/2/2
f 35/2/2 34/2/2 36/2/2
f 37/2/2 38/2/2 43/2/2
f 43/2/2 38/2/2 44/2/2
f 41/2/2 42/2/2 45/2/2
f 45/2/2 42/2/2 46/2/2
f 39/2/2 40/2/2 47/2/2
f 47/2/2 40/2/2 48/2/2
f 49/1/2 50/1/2 51/1/2
f 51/1/2 50/1/2 52/1/2
f 53/2/2 54/2/2 55/2/2
f 55/2/2 54/2/2 56/2/2
f 57/2/2 58/2/2 59/2/2
f 59/2/2 58/2/2 60/2/2
f 61/2/2 62/2/2 63/2/2
f 63/2/2 62/2/2 64/2/2
f 65/1/2 66/1/2 67/1/2
f 67/1/2 66/1/2 68/1/2
f 71/1/3 70/1/3 69/1/3
f 72/1/3 70/1/3 71/1/3
f 75/2/3 74/2/3 73/2/3
f 76/2/3 74/2/3 75/2/3
f 79/2/3 78/2/3 77/2/3
f 80/2/3 78/2/3 79/2/3
f 85/2/3 82/2/3 81/2/3
f 86/2/3 82/2/3 85/2/3
f 87/2/3 84/2/3 83/2/3
f 88/2/3 84/2/3 87/2/3
f 90/2/3 82/2/3 86/2/3
f 91/2/3 84/2/3 88/2/3
f 92/2/3 84/2/3 91/2/3
f 93/2/3 90/2/3 89/2/3
f 94/2/3 82/2/3 90/2/3
f 94/2/3 90/2/3 93/2/3
f 97/2/3 96/2/3 95/2/3
f 98/2/3 96/2/3 97/2/3
f 101/1/3 100/1/3 99/1/3
f 102/1/3 100/1/3 101/1/3
f 103/1/4 104/1/4 105/1/4
f 105/1/4 104/1/4 106/1/4
f 107/2/4 108/2/4 109/2/4
f 109/2/4 108/2/4 110/2/4
f 111/2/4 112/2/4 115/2/4
f 115/2/4 112/2/4 116/2/4
f 113/2/4 114/2/4 117/2/4
f 117/2/4 114/2/4 118/2/4
f 116/2/4 112/2/4 120/2/4
f 118/2/4 114/2/4 121/2/4
f 121/2/4 114/2/4 122/2/4
f 119/2/4 120/2/4 123/2/4
f 120/2/4 112/2/4 124/2/4
f 123/2/4 120/2/4 124/2/4
f 125/2/4 126/2/4 127/2/4
f 127/2/4 126/2/4 128/2/4
f 129/2/4 130/2/4 131/2/4
f 131/2/4 130/2/4 132/2/4
f 133/1/4 134/1/4 135/1/4
f 135/1/4 134/1/4 136/1/4
f 139/1/5 138/1/5 137/1/5
f 140/1/5 138/1/5 139/1/5
f 143/2/5 142/2/5 141/2/5
f 144/2/5 142/2/5 143/2/5
f 147/2/5 146/2/5 145/2/5
f 148/2/5 146/2/5 147/2/5
f 151/2/5 150/2/5 149/2/5
f 152/2/5 150/2/5 151/2/5
f 155/2/5 154/2/5 153/2/5
f 156/2/5 154/2/5 155/2/5
f 157/1/6 158/1/6 159/1/6
f 159/1/6 158/1/6 160/1/6
f 161/1/6 162/1/6 163/1/6
f 163/1/6 162/1/6 164/1/6
f 161/1/6 163/1/6 165/1/6
f 165/1/6 163/1/6 166/1/6
f 161/1/6 165/1/6 167/1/6
f 166/1/6 163/1/6 168/1/6
f 161/1/6 167/1/6 169/1/6
f 167/1/6 168/1/6 169/1/6
f 168/1/6 163/1/6 170/1/6
f 169/1/6 168/1/6 170/1/6
f 161/1/6 169/1/6 171/1/6
f 170/1/6 163/1/6 172/1/6
f 161/1/6 171/1/6 173/1/6
f 171/1/6 172/1/6 173/1/6
f 172/1/6 163/1/6 174/1/6
f 173/1/6 172/1/6 174/1/6
f 161/1/6 173/1/6 175/1/6
f 174/1/6 163/1/6 176/1/6
f 176/1/6 163/1/6 177/1/6
f 175/1/6 176/1/6 177/1/6
f 164/1/6 162/1/6 178/1/6
f 175/1/6 177/1/6 179/1/6
f 177/1/6 178/1/6 179/1/6
f 161/1/6 175/1/6 179/1/6
f 178/1/6 162/1/6 180/1/6
f 179/1/6 178/1/6 180/1/6
f 181/2/6 182/2/6 183/2/6
f 183/2/6 182/2/6 184/2/6
f 185/2/6 186/2/6 187/2/6
f 187/2/6 186/2/6 188/2/6
f 189/2/6 190/2/6 191/2/6
f 191/2/6 190/2/6 192/2/6
f 193/2/6 194/2/6 195/2/6
f 195/2/6 194/2/6 196/2/6
f 196/2/6 194/2/6 198/2/6
f 197/2/6 198/2/6 199/2/6
f 198/2/6 194/2/6 200/2/6
f 199/2/6 198/2/6 200/2/6
f 201/2/6 202/2/6 203/2/6
f 203/2/6 202/2/6 204/2/6
