# MagicaVoxel @ Ephtracy

# group
o 

# material
mtllib bed-side-lamp.mtl
usemtl palette

# normals
vn -1 0 0
vn 1 0 0
vn 0 0 1
vn 0 0 -1
vn 0 -1 0
vn 0 1 0

# texcoords
vt 0.0449219 0.5
vt 0.0605469 0.5
vt 0.0878906 0.5
vt 0.369141 0.5

# verts
v -0.2 0 0.2
v -0.2 0 -0.1
v -0.2 0.1 0.2
v -0.2 0.1 0.1
v -0.2 0.2 0.1
v -0.2 0.2 -0.1
v -0.2 0.5 0.2
v -0.2 0.5 -0.1
v -0.2 0.6 0.2
v -0.2 0.6 -0.1
v -0.2 0.7 0.2
v -0.2 0.7 -0.1
v -0.2 0.8 0.2
v -0.2 0.8 0.1
v -0.2 0.8 0
v -0.2 0.8 -0.1
v -0.2 0.9 0.1
v -0.2 0.9 0
v -0.1 0.2 0.1
v -0.1 0.2 0
v -0.1 0.5 0.1
v -0.1 0.5 0
v -0.1 0.6 0.1
v -0.1 0.6 0
v -0.1 0.7 0.1
v -0.1 0.7 0
v -0.1 0.8 0.2
v -0.1 0.8 0.1
v -0.1 0.8 0
v -0.1 0.8 -0.1
v -0.1 0.9 0.2
v -0.1 0.9 0.1
v -0.1 0.9 0
v -0.1 0.9 -0.1
v -0.1 1 0.1
v -0.1 1 0
v 0 0 0.1
v 0 0 0
v 0 0.1 0.1
v 0 0.1 0
v -0.1 0 0.1
v -0.1 0 0
v -0.1 0.1 0.1
v -0.1 0.1 0
v 0.1 0.2 0.1
v 0.1 0.2 0
v 0.1 0.5 0.1
v 0.1 0.5 0
v 0.1 0.6 0.1
v 0.1 0.6 0
v 0.1 0.7 0.1
v 0.1 0.7 0
v 0.1 0.8 0.2
v 0.1 0.8 0.1
v 0.1 0.8 0
v 0.1 0.8 -0.1
v 0.1 0.9 0.2
v 0.1 0.9 0.1
v 0.1 0.9 0
v 0.1 0.9 -0.1
v 0.1 1 0.1
v 0.1 1 0
v 0.2 0 0.2
v 0.2 0 -0.1
v 0.2 0.1 0.2
v 0.2 0.1 0.1
v 0.2 0.2 0.1
v 0.2 0.2 -0.1
v 0.2 0.5 0.2
v 0.2 0.5 -0.1
v 0.2 0.6 0.2
v 0.2 0.6 -0.1
v 0.2 0.7 0.2
v 0.2 0.7 -0.1
v 0.2 0.8 0.2
v 0.2 0.8 0.1
v 0.2 0.8 0
v 0.2 0.8 -0.1
v 0.2 0.9 0.1
v 0.2 0.9 0
v -0.2 0 0.2
v -0.2 0.1 0.2
v -0.2 0.5 0.2
v -0.2 0.6 0.2
v -0.2 0.7 0.2
v -0.2 0.8 0.2
v -0.1 0.8 0.2
v -0.1 0.9 0.2
v 0.1 0.8 0.2
v 0.1 0.9 0.2
v 0.2 0 0.2
v 0.2 0.1 0.2
v 0.2 0.5 0.2
v 0.2 0.6 0.2
v 0.2 0.7 0.2
v 0.2 0.8 0.2
v -0.2 0.1 0.1
v -0.2 0.2 0.1
v -0.2 0.8 0.1
v -0.2 0.9 0.1
v -0.1 0.2 0.1
v -0.1 0.5 0.1
v -0.1 0.6 0.1
v -0.1 0.7 0.1
v -0.1 0.8 0.1
v -0.1 0.9 0.1
v -0.1 1 0.1
v 0.1 0.2 0.1
v 0.1 0.5 0.1
v 0.1 0.6 0.1
v 0.1 0.7 0.1
v 0.1 0.8 0.1
v 0.1 0.9 0.1
v 0.1 1 0.1
v 0.2 0.1 0.1
v 0.2 0.2 0.1
v 0.2 0.8 0.1
v 0.2 0.9 0.1
v -0.1 0 0
v -0.1 0.1 0
v 0 0 0
v 0 0.1 0
v -0.1 0 0.1
v -0.1 0.1 0.1
v 0 0 0.1
v 0 0.1 0.1
v -0.2 0.8 0
v -0.2 0.9 0
v -0.1 0.2 0
v -0.1 0.5 0
v -0.1 0.6 0
v -0.1 0.7 0
v -0.1 0.8 0
v -0.1 0.9 0
v -0.1 1 0
v 0.1 0.2 0
v 0.1 0.5 0
v 0.1 0.6 0
v 0.1 0.7 0
v 0.1 0.8 0
v 0.1 0.9 0
v 0.1 1 0
v 0.2 0.8 0
v 0.2 0.9 0
v -0.2 0 -0.1
v -0.2 0.2 -0.1
v -0.2 0.5 -0.1
v -0.2 0.6 -0.1
v -0.2 0.7 -0.1
v -0.2 0.8 -0.1
v -0.1 0.8 -0.1
v -0.1 0.9 -0.1
v 0.1 0.8 -0.1
v 0.1 0.9 -0.1
v 0.2 0 -0.1
v 0.2 0.2 -0.1
v 0.2 0.5 -0.1
v 0.2 0.6 -0.1
v 0.2 0.7 -0.1
v 0.2 0.8 -0.1
v -0.2 0 0.2
v 0.2 0 0.2
v -0.1 0 0.1
v 0 0 0.1
v -0.1 0 0
v 0 0 0
v -0.2 0 -0.1
v 0.2 0 -0.1
v -0.1 0.1 0.1
v 0 0.1 0.1
v -0.1 0.1 0
v 0 0.1 0
v -0.2 0.5 0.2
v 0.2 0.5 0.2
v -0.1 0.5 0.1
v 0.1 0.5 0.1
v -0.1 0.5 0
v 0.1 0.5 0
v -0.2 0.5 -0.1
v 0.2 0.5 -0.1
v -0.2 0.7 0.2
v 0.2 0.7 0.2
v -0.1 0.7 0.1
v 0.1 0.7 0.1
v -0.1 0.7 0
v 0.1 0.7 0
v -0.2 0.7 -0.1
v 0.2 0.7 -0.1
v -0.2 0.1 0.2
v 0.2 0.1 0.2
v -0.2 0.1 0.1
v 0.2 0.1 0.1
v -0.2 0.2 0.1
v -0.1 0.2 0.1
v 0.1 0.2 0.1
v 0.2 0.2 0.1
v -0.1 0.2 0
v 0.1 0.2 0
v -0.2 0.2 -0.1
v 0.2 0.2 -0.1
v -0.2 0.6 0.2
v 0.2 0.6 0.2
v -0.1 0.6 0.1
v 0.1 0.6 0.1
v -0.1 0.6 0
v 0.1 0.6 0
v -0.2 0.6 -0.1
v 0.2 0.6 -0.1
v -0.2 0.8 0.2
v -0.1 0.8 0.2
v 0.1 0.8 0.2
v 0.2 0.8 0.2
v -0.2 0.8 0.1
v -0.1 0.8 0.1
v 0.1 0.8 0.1
v 0.2 0.8 0.1
v -0.2 0.8 0
v -0.1 0.8 0
v 0.1 0.8 0
v 0.2 0.8 0
v -0.2 0.8 -0.1
v -0.1 0.8 -0.1
v 0.1 0.8 -0.1
v 0.2 0.8 -0.1
v -0.1 0.9 0.2
v 0.1 0.9 0.2
v -0.2 0.9 0.1
v -0.1 0.9 0.1
v 0.1 0.9 0.1
v 0.2 0.9 0.1
v -0.2 0.9 0
v -0.1 0.9 0
v 0.1 0.9 0
v 0.2 0.9 0
v -0.1 0.9 -0.1
v 0.1 0.9 -0.1
v -0.1 1 0.1
v 0.1 1 0.1
v -0.1 1 0
v 0.1 1 0

# faces
f 3/4/1 2/4/1 1/4/1
f 4/4/1 2/4/1 3/4/1
f 5/4/1 2/4/1 4/4/1
f 6/4/1 2/4/1 5/4/1
f 9/4/1 8/4/1 7/4/1
f 10/4/1 8/4/1 9/4/1
f 13/2/1 12/2/1 11/2/1
f 14/2/1 12/2/1 13/2/1
f 15/2/1 12/2/1 14/2/1
f 16/2/1 12/2/1 15/2/1
f 17/2/1 15/2/1 14/2/1
f 18/2/1 15/2/1 17/2/1
f 21/4/1 20/4/1 19/4/1
f 22/4/1 20/4/1 21/4/1
f 25/1/1 24/1/1 23/1/1
f 26/1/1 24/1/1 25/1/1
f 31/2/1 28/2/1 27/2/1
f 32/2/1 28/2/1 31/2/1
f 33/2/1 30/2/1 29/2/1
f 34/2/1 30/2/1 33/2/1
f 35/2/1 33/2/1 32/2/1
f 36/2/1 33/2/1 35/2/1
f 39/4/1 38/4/1 37/4/1
f 40/4/1 38/4/1 39/4/1
f 41/4/2 42/4/2 43/4/2
f 43/4/2 42/4/2 44/4/2
f 45/4/2 46/4/2 47/4/2
f 47/4/2 46/4/2 48/4/2
f 49/1/2 50/1/2 51/1/2
f 51/1/2 50/1/2 52/1/2
f 53/2/2 54/2/2 57/2/2
f 57/2/2 54/2/2 58/2/2
f 55/2/2 56/2/2 59/2/2
f 59/2/2 56/2/2 60/2/2
f 58/2/2 59/2/2 61/2/2
f 61/2/2 59/2/2 62/2/2
f 63/4/2 64/4/2 65/4/2
f 65/4/2 64/4/2 66/4/2
f 66/4/2 64/4/2 67/4/2
f 67/4/2 64/4/2 68/4/2
f 69/4/2 70/4/2 71/4/2
f 71/4/2 70/4/2 72/4/2
f 73/2/2 74/2/2 75/2/2
f 75/2/2 74/2/2 76/2/2
f 76/2/2 74/2/2 77/2/2
f 77/2/2 74/2/2 78/2/2
f 76/2/2 77/2/2 79/2/2
f 79/2/2 77/2/2 80/2/2
f 87/2/3 86/2/3 85/2/3
f 89/2/3 87/2/3 85/2/3
f 89/2/3 88/2/3 87/2/3
f 90/2/3 88/2/3 89/2/3
f 91/4/3 82/4/3 81/4/3
f 92/4/3 82/4/3 91/4/3
f 93/4/3 84/4/3 83/4/3
f 94/4/3 84/4/3 93/4/3
f 95/2/3 89/2/3 85/2/3
f 96/2/3 89/2/3 95/2/3
f 101/4/3 98/4/3 97/4/3
f 105/2/3 100/2/3 99/2/3
f 106/2/3 100/2/3 105/2/3
f 108/4/3 101/4/3 97/4/3
f 108/4/3 102/4/3 101/4/3
f 109/4/3 102/4/3 108/4/3
f 110/1/3 104/1/3 103/1/3
f 111/1/3 104/1/3 110/1/3
f 113/2/3 107/2/3 106/2/3
f 114/2/3 107/2/3 113/2/3
f 115/4/3 108/4/3 97/4/3
f 116/4/3 108/4/3 115/4/3
f 117/2/3 113/2/3 112/2/3
f 118/2/3 113/2/3 117/2/3
f 121/4/3 120/4/3 119/4/3
f 122/4/3 120/4/3 121/4/3
f 123/4/4 124/4/4 125/4/4
f 125/4/4 124/4/4 126/4/4
f 127/2/4 128/2/4 133/2/4
f 133/2/4 128/2/4 134/2/4
f 129/4/4 130/4/4 136/4/4
f 136/4/4 130/4/4 137/4/4
f 131/1/4 132/1/4 138/1/4
f 138/1/4 132/1/4 139/1/4
f 134/2/4 135/2/4 141/2/4
f 141/2/4 135/2/4 142/2/4
f 140/2/4 141/2/4 143/2/4
f 143/2/4 141/2/4 144/2/4
f 149/2/4 150/2/4 151/2/4
f 149/2/4 151/2/4 153/2/4
f 151/2/4 152/2/4 153/2/4
f 153/2/4 152/2/4 154/2/4
f 145/4/4 146/4/4 155/4/4
f 155/4/4 146/4/4 156/4/4
f 147/4/4 148/4/4 157/4/4
f 157/4/4 148/4/4 158/4/4
f 149/2/4 153/2/4 159/2/4
f 159/2/4 153/2/4 160/2/4
f 163/4/5 162/4/5 161/4/5
f 164/4/5 162/4/5 163/4/5
f 165/4/5 163/4/5 161/4/5
f 166/4/5 162/4/5 164/4/5
f 167/4/5 165/4/5 161/4/5
f 167/4/5 166/4/5 165/4/5
f 168/4/5 162/4/5 166/4/5
f 168/4/5 166/4/5 167/4/5
f 171/4/5 170/4/5 169/4/5
f 172/4/5 170/4/5 171/4/5
f 175/4/5 174/4/5 173/4/5
f 176/4/5 174/4/5 175/4/5
f 177/4/5 175/4/5 173/4/5
f 178/4/5 174/4/5 176/4/5
f 179/4/5 177/4/5 173/4/5
f 179/4/5 178/4/5 177/4/5
f 180/4/5 174/4/5 178/4/5
f 180/4/5 178/4/5 179/4/5
f 183/2/5 182/2/5 181/2/5
f 184/2/5 182/2/5 183/2/5
f 185/2/5 183/2/5 181/2/5
f 186/2/5 182/2/5 184/2/5
f 187/2/5 185/2/5 181/2/5
f 187/2/5 186/2/5 185/2/5
f 188/2/5 182/2/5 186/2/5
f 188/2/5 186/2/5 187/2/5
f 189/4/6 190/4/6 191/4/6
f 191/4/6 190/4/6 192/4/6
f 193/4/6 194/4/6 197/4/6
f 195/4/6 196/4/6 198/4/6
f 193/4/6 197/4/6 199/4/6
f 197/4/6 198/4/6 199/4/6
f 198/4/6 196/4/6 200/4/6
f 199/4/6 198/4/6 200/4/6
f 201/4/6 202/4/6 203/4/6
f 203/4/6 202/4/6 204/4/6
f 201/4/6 203/4/6 205/4/6
f 204/4/6 202/4/6 206/4/6
f 201/4/6 205/4/6 207/4/6
f 205/4/6 206/4/6 207/4/6
f 206/4/6 202/4/6 208/4/6
f 207/4/6 206/4/6 208/4/6
f 209/2/6 210/2/6 213/2/6
f 213/2/6 210/2/6 214/2/6
f 211/2/6 212/2/6 215/2/6
f 215/2/6 212/2/6 216/2/6
f 217/2/6 218/2/6 221/2/6
f 221/2/6 218/2/6 222/2/6
f 219/2/6 220/2/6 223/2/6
f 223/2/6 220/2/6 224/2/6
f 225/2/6 226/2/6 228/2/6
f 228/2/6 226/2/6 229/2/6
f 227/2/6 228/2/6 231/2/6
f 231/2/6 228/2/6 232/2/6
f 229/2/6 230/2/6 233/2/6
f 233/2/6 230/2/6 234/2/6
f 232/2/6 233/2/6 235/2/6
f 235/2/6 233/2/6 236/2/6
f 237/2/6 238/2/6 239/2/6
f 239/2/6 238/2/6 240/2/6
