# MagicaVoxel @ Ephtracy

# group
o 

# material
mtllib chair.mtl
usemtl palette

# normals
vn -1 0 0
vn 1 0 0
vn 0 0 1
vn 0 0 -1
vn 0 -1 0
vn 0 1 0

# texcoords
vt 0.806641 0.5
vt 0.810547 0.5

# verts
v -0.8 0.5 0.4
v -0.8 0.5 -0.4
v -0.8 0.6 0.4
v -0.8 0.6 0.2
v -0.8 0.6 -0.2
v -0.8 0.6 -0.4
v -0.8 0.7 0.3
v -0.8 0.7 0.2
v -0.8 0.7 -0.2
v -0.8 0.7 -0.3
v -0.8 0.9 0.4
v -0.8 0.9 0.3
v -0.8 0.9 -0.3
v -0.8 0.9 -0.4
v -0.8 1.4 0.4
v -0.8 1.4 0.3
v -0.8 1.4 -0.3
v -0.8 1.4 -0.4
v -0.8 1.5 0.3
v -0.8 1.5 -0.3
v -0.7 0 0.3
v -0.7 0 0.2
v -0.7 0 -0.2
v -0.7 0 -0.3
v -0.7 0.5 0.3
v -0.7 0.5 0.2
v -0.7 0.5 -0.2
v -0.7 0.5 -0.3
v -0.3 0 0.3
v -0.3 0 0.2
v -0.3 0 -0.2
v -0.3 0 -0.3
v -0.3 0.5 0.3
v -0.3 0.5 0.2
v -0.3 0.5 -0.2
v -0.3 0.5 -0.3
v -0.7 0.6 0.2
v -0.7 0.6 -0.2
v -0.7 0.7 0.3
v -0.7 0.7 0.2
v -0.7 0.7 -0.2
v -0.7 0.7 -0.3
v -0.7 0.9 0.4
v -0.7 0.9 0.3
v -0.7 0.9 -0.3
v -0.7 0.9 -0.4
v -0.7 1.4 0.4
v -0.7 1.4 0.3
v -0.7 1.4 -0.3
v -0.7 1.4 -0.4
v -0.7 1.5 0.3
v -0.7 1.5 -0.3
v -0.6 0 0.3
v -0.6 0 0.2
v -0.6 0 -0.2
v -0.6 0 -0.3
v -0.6 0.5 0.3
v -0.6 0.5 0.2
v -0.6 0.5 -0.2
v -0.6 0.5 -0.3
v -0.2 0 0.3
v -0.2 0 0.2
v -0.2 0 -0.2
v -0.2 0 -0.3
v -0.2 0.5 0.3
v -0.2 0.5 0.2
v -0.2 0.5 -0.2
v -0.2 0.5 -0.3
v -0.1 0.5 0.4
v -0.1 0.5 -0.4
v -0.1 0.6 0.4
v -0.1 0.6 -0.4
v -0.8 0.5 0.4
v -0.8 0.6 0.4
v -0.8 0.9 0.4
v -0.8 1.4 0.4
v -0.7 0.9 0.4
v -0.7 1.4 0.4
v -0.1 0.5 0.4
v -0.1 0.6 0.4
v -0.8 0.7 0.3
v -0.8 0.9 0.3
v -0.8 1.4 0.3
v -0.8 1.5 0.3
v -0.7 0 0.3
v -0.7 0.5 0.3
v -0.7 0.7 0.3
v -0.7 0.9 0.3
v -0.7 1.4 0.3
v -0.7 1.5 0.3
v -0.6 0 0.3
v -0.6 0.5 0.3
v -0.3 0 0.3
v -0.3 0.5 0.3
v -0.2 0 0.3
v -0.2 0.5 0.3
v -0.8 0.6 0.2
v -0.8 0.7 0.2
v -0.7 0.6 0.2
v -0.7 0.7 0.2
v -0.7 0 -0.2
v -0.7 0.5 -0.2
v -0.6 0 -0.2
v -0.6 0.5 -0.2
v -0.3 0 -0.2
v -0.3 0.5 -0.2
v -0.2 0 -0.2
v -0.2 0.5 -0.2
v -0.7 0 0.2
v -0.7 0.5 0.2
v -0.6 0 0.2
v -0.6 0.5 0.2
v -0.3 0 0.2
v -0.3 0.5 0.2
v -0.2 0 0.2
v -0.2 0.5 0.2
v -0.8 0.6 -0.2
v -0.8 0.7 -0.2
v -0.7 0.6 -0.2
v -0.7 0.7 -0.2
v -0.8 0.7 -0.3
v -0.8 0.9 -0.3
v -0.8 1.4 -0.3
v -0.8 1.5 -0.3
v -0.7 0 -0.3
v -0.7 0.5 -0.3
v -0.7 0.7 -0.3
v -0.7 0.9 -0.3
v -0.7 1.4 -0.3
v -0.7 1.5 -0.3
v -0.6 0 -0.3
v -0.6 0.5 -0.3
v -0.3 0 -0.3
v -0.3 0.5 -0.3
v -0.2 0 -0.3
v -0.2 0.5 -0.3
v -0.8 0.5 -0.4
v -0.8 0.6 -0.4
v -0.8 0.9 -0.4
v -0.8 1.4 -0.4
v -0.7 0.9 -0.4
v -0.7 1.4 -0.4
v -0.1 0.5 -0.4
v -0.1 0.6 -0.4
v -0.7 0 0.3
v -0.6 0 0.3
v -0.3 0 0.3
v -0.2 0 0.3
v -0.7 0 0.2
v -0.6 0 0.2
v -0.3 0 0.2
v -0.2 0 0.2
v -0.7 0 -0.2
v -0.6 0 -0.2
v -0.3 0 -0.2
v -0.2 0 -0.2
v -0.7 0 -0.3
v -0.6 0 -0.3
v -0.3 0 -0.3
v -0.2 0 -0.3
v -0.8 0.5 0.4
v -0.1 0.5 0.4
v -0.7 0.5 0.3
v -0.6 0.5 0.3
v -0.3 0.5 0.3
v -0.2 0.5 0.3
v -0.7 0.5 0.2
v -0.6 0.5 0.2
v -0.3 0.5 0.2
v -0.2 0.5 0.2
v -0.7 0.5 -0.2
v -0.6 0.5 -0.2
v -0.3 0.5 -0.2
v -0.2 0.5 -0.2
v -0.7 0.5 -0.3
v -0.6 0.5 -0.3
v -0.3 0.5 -0.3
v -0.2 0.5 -0.3
v -0.8 0.5 -0.4
v -0.1 0.5 -0.4
v -0.8 0.7 0.3
v -0.7 0.7 0.3
v -0.8 0.7 0.2
v -0.7 0.7 0.2
v -0.8 0.7 -0.2
v -0.7 0.7 -0.2
v -0.8 0.7 -0.3
v -0.7 0.7 -0.3
v -0.8 0.9 0.4
v -0.7 0.9 0.4
v -0.8 0.9 0.3
v -0.7 0.9 0.3
v -0.8 0.9 -0.3
v -0.7 0.9 -0.3
v -0.8 0.9 -0.4
v -0.7 0.9 -0.4
v -0.8 0.6 0.4
v -0.1 0.6 0.4
v -0.8 0.6 0.2
v -0.7 0.6 0.2
v -0.8 0.6 -0.2
v -0.7 0.6 -0.2
v -0.8 0.6 -0.4
v -0.1 0.6 -0.4
v -0.8 1.4 0.4
v -0.7 1.4 0.4
v -0.8 1.4 0.3
v -0.7 1.4 0.3
v -0.8 1.4 -0.3
v -0.7 1.4 -0.3
v -0.8 1.4 -0.4
v -0.7 1.4 -0.4
v -0.8 1.5 0.3
v -0.7 1.5 0.3
v -0.8 1.5 -0.3
v -0.7 1.5 -0.3

# faces
f 3/1/1 2/1/1 1/1/1
f 4/1/1 2/1/1 3/1/1
f 5/1/1 2/1/1 4/1/1
f 6/1/1 2/1/1 5/1/1
f 8/1/1 5/1/1 4/1/1
f 9/1/1 5/1/1 8/1/1
f 12/1/1 8/1/1 7/1/1
f 12/1/1 10/1/1 9/1/1
f 12/1/1 9/1/1 8/1/1
f 13/1/1 10/1/1 12/1/1
f 15/1/1 12/1/1 11/1/1
f 15/1/1 14/1/1 13/1/1
f 15/1/1 13/1/1 12/1/1
f 16/1/1 14/1/1 15/1/1
f 17/1/1 14/1/1 16/1/1
f 18/1/1 14/1/1 17/1/1
f 19/1/1 17/1/1 16/1/1
f 20/1/1 17/1/1 19/1/1
f 25/2/1 22/2/1 21/2/1
f 26/2/1 22/2/1 25/2/1
f 27/2/1 24/2/1 23/2/1
f 28/2/1 24/2/1 27/2/1
f 33/2/1 30/2/1 29/2/1
f 34/2/1 30/2/1 33/2/1
f 35/2/1 32/2/1 31/2/1
f 36/2/1 32/2/1 35/2/1
f 37/1/2 38/1/2 40/1/2
f 40/1/2 38/1/2 41/1/2
f 39/1/2 40/1/2 44/1/2
f 41/1/2 42/1/2 44/1/2
f 40/1/2 41/1/2 44/1/2
f 44/1/2 42/1/2 45/1/2
f 43/1/2 44/1/2 47/1/2
f 45/1/2 46/1/2 47/1/2
f 44/1/2 45/1/2 47/1/2
f 47/1/2 46/1/2 48/1/2
f 48/1/2 46/1/2 49/1/2
f 49/1/2 46/1/2 50/1/2
f 48/1/2 49/1/2 51/1/2
f 51/1/2 49/1/2 52/1/2
f 53/2/2 54/2/2 57/2/2
f 57/2/2 54/2/2 58/2/2
f 55/2/2 56/2/2 59/2/2
f 59/2/2 56/2/2 60/2/2
f 61/2/2 62/2/2 65/2/2
f 65/2/2 62/2/2 66/2/2
f 63/2/2 64/2/2 67/2/2
f 67/2/2 64/2/2 68/2/2
f 69/1/2 70/1/2 71/1/2
f 71/1/2 70/1/2 72/1/2
f 77/1/3 76/1/3 75/1/3
f 78/1/3 76/1/3 77/1/3
f 79/1/3 74/1/3 73/1/3
f 80/1/3 74/1/3 79/1/3
f 87/1/3 82/1/3 81/1/3
f 88/1/3 82/1/3 87/1/3
f 89/1/3 84/1/3 83/1/3
f 90/1/3 84/1/3 89/1/3
f 91/2/3 86/2/3 85/2/3
f 92/2/3 86/2/3 91/2/3
f 95/2/3 94/2/3 93/2/3
f 96/2/3 94/2/3 95/2/3
f 99/1/3 98/1/3 97/1/3
f 100/1/3 98/1/3 99/1/3
f 103/2/3 102/2/3 101/2/3
f 104/2/3 102/2/3 103/2/3
f 107/2/3 106/2/3 105/2/3
f 108/2/3 106/2/3 107/2/3
f 109/2/4 110/2/4 111/2/4
f 111/2/4 110/2/4 112/2/4
f 113/2/4 114/2/4 115/2/4
f 115/2/4 114/2/4 116/2/4
f 117/1/4 118/1/4 119/1/4
f 119/1/4 118/1/4 120/1/4
f 121/1/4 122/1/4 127/1/4
f 127/1/4 122/1/4 128/1/4
f 123/1/4 124/1/4 129/1/4
f 129/1/4 124/1/4 130/1/4
f 125/2/4 126/2/4 131/2/4
f 131/2/4 126/2/4 132/2/4
f 133/2/4 134/2/4 135/2/4
f 135/2/4 134/2/4 136/2/4
f 139/1/4 140/1/4 141/1/4
f 141/1/4 140/1/4 142/1/4
f 137/1/4 138/1/4 143/1/4
f 143/1/4 138/1/4 144/1/4
f 149/2/5 146/2/5 145/2/5
f 150/2/5 146/2/5 149/2/5
f 151/2/5 148/2/5 147/2/5
f 152/2/5 148/2/5 151/2/5
f 157/2/5 154/2/5 153/2/5
f 158/2/5 154/2/5 157/2/5
f 159/2/5 156/2/5 155/2/5
f 160/2/5 156/2/5 159/2/5
f 163/1/5 162/1/5 161/1/5
f 164/1/5 162/1/5 163/1/5
f 165/1/5 162/1/5 164/1/5
f 166/1/5 162/1/5 165/1/5
f 167/1/5 163/1/5 161/1/5
f 168/1/5 165/1/5 164/1/5
f 169/1/5 165/1/5 168/1/5
f 170/1/5 162/1/5 166/1/5
f 171/1/5 169/1/5 168/1/5
f 171/1/5 170/1/5 169/1/5
f 171/1/5 167/1/5 161/1/5
f 171/1/5 168/1/5 167/1/5
f 172/1/5 170/1/5 171/1/5
f 173/1/5 170/1/5 172/1/5
f 174/1/5 162/1/5 170/1/5
f 174/1/5 170/1/5 173/1/5
f 175/1/5 171/1/5 161/1/5
f 176/1/5 173/1/5 172/1/5
f 177/1/5 173/1/5 176/1/5
f 178/1/5 162/1/5 174/1/5
f 179/1/5 175/1/5 161/1/5
f 179/1/5 178/1/5 177/1/5
f 179/1/5 177/1/5 176/1/5
f 179/1/5 176/1/5 175/1/5
f 180/1/5 162/1/5 178/1/5
f 180/1/5 178/1/5 179/1/5
f 183/1/5 182/1/5 181/1/5
f 184/1/5 182/1/5 183/1/5
f 187/1/5 186/1/5 185/1/5
f 188/1/5 186/1/5 187/1/5
f 191/1/5 190/1/5 189/1/5
f 192/1/5 190/1/5 191/1/5
f 195/1/5 194/1/5 193/1/5
f 196/1/5 194/1/5 195/1/5
f 197/1/6 198/1/6 199/1/6
f 199/1/6 198/1/6 200/1/6
f 200/1/6 198/1/6 202/1/6
f 201/1/6 202/1/6 203/1/6
f 202/1/6 198/1/6 204/1/6
f 203/1/6 202/1/6 204/1/6
f 205/1/6 206/1/6 207/1/6
f 207/1/6 206/1/6 208/1/6
f 209/1/6 210/1/6 211/1/6
f 211/1/6 210/1/6 212/1/6
f 213/1/6 214/1/6 215/1/6
f 215/1/6 214/1/6 216/1/6
