# MagicaVoxel @ Ephtracy

# group
o 

# material
mtllib commode.mtl
usemtl palette

# normals
vn -1 0 0
vn 1 0 0
vn 0 0 1
vn 0 0 -1
vn 0 -1 0
vn 0 1 0

# texcoords
vt 0.369141 0.5
vt 0.537109 0.5

# verts
v -1 0 0.1
v -1 0 -0.3
v -1 1 0.1
v -1 1 -0.3
v -0.9 0.2 0.2
v -0.9 0.2 0.1
v -0.9 0.5 0.2
v -0.9 0.5 0.1
v -0.9 0.6 0.2
v -0.9 0.6 0.1
v -0.9 0.9 0.2
v -0.9 0.9 0.1
v -0.3 0.3 0.3
v -0.3 0.3 0.2
v -0.3 0.4 0.3
v -0.3 0.4 0.2
v -0.3 0.7 0.3
v -0.3 0.7 0.2
v -0.3 0.8 0.3
v -0.3 0.8 0.2
v 0.3 0.3 0.3
v 0.3 0.3 0.2
v 0.3 0.4 0.3
v 0.3 0.4 0.2
v 0.3 0.7 0.3
v 0.3 0.7 0.2
v 0.3 0.8 0.3
v 0.3 0.8 0.2
v 0.9 0.2 0.2
v 0.9 0.2 0.1
v 0.9 0.5 0.2
v 0.9 0.5 0.1
v 0.9 0.6 0.2
v 0.9 0.6 0.1
v 0.9 0.9 0.2
v 0.9 0.9 0.1
v 1 0 0.1
v 1 0 -0.3
v 1 1 0.1
v 1 1 -0.3
v -0.3 0.3 0.3
v -0.3 0.4 0.3
v -0.3 0.7 0.3
v -0.3 0.8 0.3
v 0.3 0.3 0.3
v 0.3 0.4 0.3
v 0.3 0.7 0.3
v 0.3 0.8 0.3
v -0.9 0.2 0.2
v -0.9 0.5 0.2
v -0.9 0.6 0.2
v -0.9 0.9 0.2
v -0.3 0.3 0.2
v -0.3 0.4 0.2
v -0.3 0.7 0.2
v -0.3 0.8 0.2
v 0.3 0.3 0.2
v 0.3 0.4 0.2
v 0.3 0.7 0.2
v 0.3 0.8 0.2
v 0.9 0.2 0.2
v 0.9 0.5 0.2
v 0.9 0.6 0.2
v 0.9 0.9 0.2
v -1 0 0.1
v -1 1 0.1
v -0.9 0.2 0.1
v -0.9 0.5 0.1
v -0.9 0.6 0.1
v -0.9 0.9 0.1
v 0.9 0.2 0.1
v 0.9 0.5 0.1
v 0.9 0.6 0.1
v 0.9 0.9 0.1
v 1 0 0.1
v 1 1 0.1
v -1 0 -0.3
v -1 1 -0.3
v 1 0 -0.3
v 1 1 -0.3
v -1 0 0.1
v 1 0 0.1
v -1 0 -0.3
v 1 0 -0.3
v -0.9 0.2 0.2
v 0.9 0.2 0.2
v -0.9 0.2 0.1
v 0.9 0.2 0.1
v -0.3 0.3 0.3
v 0.3 0.3 0.3
v -0.3 0.3 0.2
v 0.3 0.3 0.2
v -0.9 0.6 0.2
v 0.9 0.6 0.2
v -0.9 0.6 0.1
v 0.9 0.6 0.1
v -0.3 0.7 0.3
v 0.3 0.7 0.3
v -0.3 0.7 0.2
v 0.3 0.7 0.2
v -0.3 0.4 0.3
v 0.3 0.4 0.3
v -0.3 0.4 0.2
v 0.3 0.4 0.2
v -0.9 0.5 0.2
v 0.9 0.5 0.2
v -0.9 0.5 0.1
v 0.9 0.5 0.1
v -0.3 0.8 0.3
v 0.3 0.8 0.3
v -0.3 0.8 0.2
v 0.3 0.8 0.2
v -0.9 0.9 0.2
v 0.9 0.9 0.2
v -0.9 0.9 0.1
v 0.9 0.9 0.1
v -1 1 0.1
v 1 1 0.1
v -1 1 -0.3
v 1 1 -0.3

# faces
f 3/1/1 2/1/1 1/1/1
f 4/1/1 2/1/1 3/1/1
f 7/1/1 6/1/1 5/1/1
f 8/1/1 6/1/1 7/1/1
f 11/1/1 10/1/1 9/1/1
f 12/1/1 10/1/1 11/1/1
f 15/2/1 14/2/1 13/2/1
f 16/2/1 14/2/1 15/2/1
f 19/2/1 18/2/1 17/2/1
f 20/2/1 18/2/1 19/2/1
f 21/2/2 22/2/2 23/2/2
f 23/2/2 22/2/2 24/2/2
f 25/2/2 26/2/2 27/2/2
f 27/2/2 26/2/2 28/2/2
f 29/1/2 30/1/2 31/1/2
f 31/1/2 30/1/2 32/1/2
f 33/1/2 34/1/2 35/1/2
f 35/1/2 34/1/2 36/1/2
f 37/1/2 38/1/2 39/1/2
f 39/1/2 38/1/2 40/1/2
f 45/2/3 42/2/3 41/2/3
f 46/2/3 42/2/3 45/2/3
f 47/2/3 44/2/3 43/2/3
f 48/2/3 44/2/3 47/2/3
f 53/1/3 50/1/3 49/1/3
f 54/1/3 50/1/3 53/1/3
f 55/1/3 52/1/3 51/1/3
f 56/1/3 52/1/3 55/1/3
f 57/1/3 53/1/3 49/1/3
f 58/1/3 50/1/3 54/1/3
f 59/1/3 55/1/3 51/1/3
f 60/1/3 52/1/3 56/1/3
f 61/1/3 57/1/3 49/1/3
f 61/1/3 58/1/3 57/1/3
f 62/1/3 50/1/3 58/1/3
f 62/1/3 58/1/3 61/1/3
f 63/1/3 60/1/3 59/1/3
f 63/1/3 59/1/3 51/1/3
f 64/1/3 52/1/3 60/1/3
f 64/1/3 60/1/3 63/1/3
f 67/1/3 66/1/3 65/1/3
f 68/1/3 66/1/3 67/1/3
f 69/1/3 66/1/3 68/1/3
f 70/1/3 66/1/3 69/1/3
f 71/1/3 67/1/3 65/1/3
f 72/1/3 69/1/3 68/1/3
f 73/1/3 69/1/3 72/1/3
f 74/1/3 66/1/3 70/1/3
f 75/1/3 73/1/3 72/1/3
f 75/1/3 74/1/3 73/1/3
f 75/1/3 71/1/3 65/1/3
f 75/1/3 72/1/3 71/1/3
f 76/1/3 66/1/3 74/1/3
f 76/1/3 74/1/3 75/1/3
f 77/1/4 78/1/4 79/1/4
f 79/1/4 78/1/4 80/1/4
f 83/1/5 82/1/5 81/1/5
f 84/1/5 82/1/5 83/1/5
f 87/1/5 86/1/5 85/1/5
f 88/1/5 86/1/5 87/1/5
f 91/2/5 90/2/5 89/2/5
f 92/2/5 90/2/5 91/2/5
f 95/1/5 94/1/5 93/1/5
f 96/1/5 94/1/5 95/1/5
f 99/2/5 98/2/5 97/2/5
f 100/2/5 98/2/5 99/2/5
f 101/2/6 102/2/6 103/2/6
f 103/2/6 102/2/6 104/2/6
f 105/1/6 106/1/6 107/1/6
f 107/1/6 106/1/6 108/1/6
f 109/2/6 110/2/6 111/2/6
f 111/2/6 110/2/6 112/2/6
f 113/1/6 114/1/6 115/1/6
f 115/1/6 114/1/6 116/1/6
f 117/1/6 118/1/6 119/1/6
f 119/1/6 118/1/6 120/1/6
