# MagicaVoxel @ Ephtracy

# group
o 

# material
mtllib curtains.mtl
usemtl palette

# normals
vn -1 0 0
vn 1 0 0
vn 0 0 1
vn 0 0 -1
vn 0 -1 0
vn 0 1 0

# texcoords
vt 0.0878906 0.5
vt 0.205078 0.5
vt 0.369141 0.5
vt 0.498047 0.5
vt 0.865234 0.5
vt 0.869141 0.5

# verts
v -1 0 0.2
v -1 0 0.1
v -1 0 0
v -1 0.3 0.1
v -1 0.3 0
v -1 0.4 0.2
v -1 0.4 0.1
v -1 0.9 0
v -1 0.9 -0.1
v -1 1.7 0.2
v -1 1.7 0.1
v -1 1.7 0
v -1 1.7 -0.1
v -1 2 0.2
v -1 2 -0.1
v 0.7 1 0.1
v 0.7 1 0
v 0.7 1.7 0.1
v 0.7 1.7 0
v 0.8 0 0.2
v 0.8 0 0.1
v 0.8 0.3 0.2
v 0.8 0.3 0.1
v 0.8 0.9 0.1
v 0.8 1.7 0.2
v 0.8 1.7 0.1
v 0.9 0 0.1
v 0.9 0 0
v 0.9 0.3 0.1
v 0.9 0.3 0
v 0.9 0.9 0.1
v 0.9 0.9 0
v -0.9 0 0.1
v -0.9 0 0
v -0.9 0.3 0.1
v -0.9 0.3 0
v -0.9 0.9 0.1
v -0.9 0.9 0
v -0.8 0 0.2
v -0.8 0 0.1
v -0.8 0.3 0.2
v -0.8 0.3 0.1
v -0.8 0.9 0.1
v -0.8 1.7 0.2
v -0.8 1.7 0.1
v -0.7 1 0.1
v -0.7 1 0
v -0.7 1.7 0.1
v -0.7 1.7 0
v 1 0 0.2
v 1 0 0.1
v 1 0 0
v 1 0.3 0.1
v 1 0.3 0
v 1 0.4 0.2
v 1 0.4 0.1
v 1 0.9 0
v 1 0.9 -0.1
v 1 1.7 0.2
v 1 1.7 0.1
v 1 1.7 0
v 1 1.7 -0.1
v 1 2 0.2
v 1 2 -0.1
v -1 0 0.2
v -1 0.4 0.2
v -1 1.7 0.2
v -1 2 0.2
v -0.9 0 0.2
v -0.9 0.3 0.2
v -0.9 0.4 0.2
v -0.9 1.7 0.2
v -0.8 0 0.2
v -0.8 0.3 0.2
v -0.8 1.7 0.2
v 0.8 0 0.2
v 0.8 0.3 0.2
v 0.8 1.7 0.2
v 0.9 0 0.2
v 0.9 0.3 0.2
v 0.9 0.4 0.2
v 0.9 1.7 0.2
v 1 0 0.2
v 1 0.4 0.2
v 1 1.7 0.2
v 1 2 0.2
v -0.8 0.9 0.1
v -0.8 1.7 0.1
v -0.7 1 0.1
v -0.7 1.7 0.1
v 0.7 1 0.1
v 0.7 1.7 0.1
v 0.8 0.9 0.1
v 0.8 1.7 0.1
v -0.7 1 0
v -0.7 1.7 0
v 0.7 1 0
v 0.7 1.7 0
v -0.9 0 0.1
v -0.9 0.3 0.1
v -0.9 0.9 0.1
v -0.8 0 0.1
v -0.8 0.3 0.1
v -0.8 0.9 0.1
v 0.8 0 0.1
v 0.8 0.3 0.1
v 0.8 0.9 0.1
v 0.9 0 0.1
v 0.9 0.3 0.1
v 0.9 0.9 0.1
v -1 0 0
v -1 0.3 0
v -1 0.9 0
v -0.9 0 0
v -0.9 0.3 0
v -0.9 0.9 0
v 0.9 0 0
v 0.9 0.3 0
v 0.9 0.9 0
v 1 0 0
v 1 0.3 0
v 1 0.9 0
v -1 0.9 -0.1
v -1 1.7 -0.1
v -1 2 -0.1
v -0.9 0.9 -0.1
v -0.9 1.7 -0.1
v -0.9 1.9 -0.1
v -0.7 1 -0.1
v -0.7 1.7 -0.1
v 0.7 1 -0.1
v 0.7 1.7 -0.1
v 0.9 0.9 -0.1
v 0.9 1.7 -0.1
v 0.9 1.9 -0.1
v 1 0.9 -0.1
v 1 1.7 -0.1
v 1 2 -0.1
v -1 0 0.2
v -0.9 0 0.2
v -0.8 0 0.2
v 0.8 0 0.2
v 0.9 0 0.2
v 1 0 0.2
v -1 0 0.1
v -0.9 0 0.1
v -0.8 0 0.1
v 0.8 0 0.1
v 0.9 0 0.1
v 1 0 0.1
v -1 0 0
v -0.9 0 0
v 0.9 0 0
v 1 0 0
v -0.9 0.9 0.1
v -0.8 0.9 0.1
v 0.8 0.9 0.1
v 0.9 0.9 0.1
v -1 0.9 0
v -0.9 0.9 0
v -0.8 0.9 0
v 0.8 0.9 0
v 0.9 0.9 0
v 1 0.9 0
v -1 0.9 -0.1
v -0.9 0.9 -0.1
v 0.9 0.9 -0.1
v 1 0.9 -0.1
v -0.8 1.7 0.2
v 0.8 1.7 0.2
v -0.8 1.7 0.1
v -0.7 1.7 0.1
v 0.7 1.7 0.1
v 0.8 1.7 0.1
v -0.7 1.7 0
v 0.7 1.7 0
v -0.7 1 0.1
v 0.7 1 0.1
v -0.7 1 0
v 0.7 1 0
v -1 2 0.2
v 1 2 0.2
v -1 2 -0.1
v 1 2 -0.1

# faces
f 4/5/1 2/5/1 1/5/1
f 4/6/1 3/6/1 2/6/1
f 5/6/1 3/6/1 4/6/1
f 6/5/1 4/5/1 1/5/1
f 6/5/1 5/5/1 4/5/1
f 7/5/1 5/5/1 6/5/1
f 8/5/1 5/5/1 7/5/1
f 10/6/1 7/6/1 6/6/1
f 11/5/1 8/5/1 7/5/1
f 11/6/1 7/6/1 10/6/1
f 12/6/1 9/6/1 8/6/1
f 12/5/1 8/5/1 11/5/1
f 13/6/1 9/6/1 12/6/1
f 14/1/1 11/1/1 10/1/1
f 14/1/1 12/1/1 11/1/1
f 14/1/1 13/1/1 12/1/1
f 15/1/1 13/1/1 14/1/1
f 18/3/1 17/3/1 16/3/1
f 19/3/1 17/3/1 18/3/1
f 22/6/1 21/6/1 20/6/1
f 23/6/1 21/6/1 22/6/1
f 24/5/1 23/5/1 22/5/1
f 25/5/1 24/5/1 22/5/1
f 26/5/1 24/5/1 25/5/1
f 29/6/1 28/6/1 27/6/1
f 30/6/1 28/6/1 29/6/1
f 31/5/1 30/5/1 29/5/1
f 32/5/1 30/5/1 31/5/1
f 33/6/2 34/6/2 35/6/2
f 35/6/2 34/6/2 36/6/2
f 35/5/2 36/5/2 37/5/2
f 37/5/2 36/5/2 38/5/2
f 39/6/2 40/6/2 41/6/2
f 41/6/2 40/6/2 42/6/2
f 41/5/2 42/5/2 43/5/2
f 41/5/2 43/5/2 44/5/2
f 44/5/2 43/5/2 45/5/2
f 46/3/2 47/3/2 48/3/2
f 48/3/2 47/3/2 49/3/2
f 50/5/2 51/5/2 53/5/2
f 51/6/2 52/6/2 53/6/2
f 53/6/2 52/6/2 54/6/2
f 50/5/2 53/5/2 55/5/2
f 53/5/2 54/5/2 55/5/2
f 55/5/2 54/5/2 56/5/2
f 56/5/2 54/5/2 57/5/2
f 55/6/2 56/6/2 59/6/2
f 56/5/2 57/5/2 60/5/2
f 59/6/2 56/6/2 60/6/2
f 57/6/2 58/6/2 61/6/2
f 60/5/2 57/5/2 61/5/2
f 61/6/2 58/6/2 62/6/2
f 59/1/2 60/1/2 63/1/2
f 60/1/2 61/1/2 63/1/2
f 61/1/2 62/1/2 63/1/2
f 63/1/2 62/1/2 64/1/2
f 69/5/3 66/5/3 65/5/3
f 70/5/3 66/5/3 69/5/3
f 71/6/3 67/6/3 66/6/3
f 71/5/3 66/5/3 70/5/3
f 72/1/3 68/1/3 67/1/3
f 72/6/3 67/6/3 71/6/3
f 73/6/3 70/6/3 69/6/3
f 74/5/3 71/5/3 70/5/3
f 74/6/3 70/6/3 73/6/3
f 74/5/3 72/5/3 71/5/3
f 75/1/3 68/1/3 72/1/3
f 75/5/3 72/5/3 74/5/3
f 78/1/3 68/1/3 75/1/3
f 79/6/3 77/6/3 76/6/3
f 80/5/3 78/5/3 77/5/3
f 80/6/3 77/6/3 79/6/3
f 81/5/3 78/5/3 80/5/3
f 82/1/3 68/1/3 78/1/3
f 82/5/3 78/5/3 81/5/3
f 83/5/3 81/5/3 80/5/3
f 83/5/3 80/5/3 79/5/3
f 84/6/3 82/6/3 81/6/3
f 84/5/3 81/5/3 83/5/3
f 85/1/3 68/1/3 82/1/3
f 85/6/3 82/6/3 84/6/3
f 86/1/3 68/1/3 85/1/3
f 89/3/3 88/3/3 87/3/3
f 90/3/3 88/3/3 89/3/3
f 91/3/3 89/3/3 87/3/3
f 93/3/3 91/3/3 87/3/3
f 93/3/3 92/3/3 91/3/3
f 94/3/3 92/3/3 93/3/3
f 97/4/3 96/4/3 95/4/3
f 98/4/3 96/4/3 97/4/3
f 99/6/4 100/6/4 102/6/4
f 100/5/4 101/5/4 103/5/4
f 102/6/4 100/6/4 103/6/4
f 103/5/4 101/5/4 104/5/4
f 105/6/4 106/6/4 108/6/4
f 106/5/4 107/5/4 109/5/4
f 108/6/4 106/6/4 109/6/4
f 109/5/4 107/5/4 110/5/4
f 111/6/4 112/6/4 114/6/4
f 112/5/4 113/5/4 115/5/4
f 114/6/4 112/6/4 115/6/4
f 115/5/4 113/5/4 116/5/4
f 117/6/4 118/6/4 120/6/4
f 118/5/4 119/5/4 121/5/4
f 120/6/4 118/6/4 121/6/4
f 121/5/4 119/5/4 122/5/4
f 123/6/4 124/6/4 126/6/4
f 124/1/4 125/1/4 127/1/4
f 126/6/4 124/6/4 127/6/4
f 127/1/4 125/1/4 128/1/4
f 126/2/4 127/2/4 129/2/4
f 127/2/4 128/2/4 129/2/4
f 129/2/4 128/2/4 130/2/4
f 126/2/4 129/2/4 131/2/4
f 129/4/4 130/4/4 131/4/4
f 130/2/4 128/2/4 132/2/4
f 131/4/4 130/4/4 132/4/4
f 126/2/4 131/2/4 133/2/4
f 131/2/4 132/2/4 133/2/4
f 132/2/4 128/2/4 134/2/4
f 133/2/4 132/2/4 134/2/4
f 128/1/4 125/1/4 135/1/4
f 134/2/4 128/2/4 135/2/4
f 133/6/4 134/6/4 136/6/4
f 134/1/4 135/1/4 137/1/4
f 136/6/4 134/6/4 137/6/4
f 135/1/4 125/1/4 138/1/4
f 137/1/4 135/1/4 138/1/4
f 145/5/5 140/5/5 139/5/5
f 146/6/5 141/6/5 140/6/5
f 146/5/5 140/5/5 145/5/5
f 147/6/5 141/6/5 146/6/5
f 148/6/5 143/6/5 142/6/5
f 149/5/5 144/5/5 143/5/5
f 149/6/5 143/6/5 148/6/5
f 150/5/5 144/5/5 149/5/5
f 151/6/5 146/6/5 145/6/5
f 152/6/5 146/6/5 151/6/5
f 153/6/5 150/6/5 149/6/5
f 154/6/5 150/6/5 153/6/5
f 160/2/5 156/2/5 155/2/5
f 161/3/5 157/3/5 156/3/5
f 161/2/5 156/2/5 160/2/5
f 162/2/5 158/2/5 157/2/5
f 162/3/5 157/3/5 161/3/5
f 163/2/5 158/2/5 162/2/5
f 165/6/5 160/6/5 159/6/5
f 166/2/5 161/2/5 160/2/5
f 166/6/5 160/6/5 165/6/5
f 166/2/5 162/2/5 161/2/5
f 166/2/5 163/2/5 162/2/5
f 167/6/5 164/6/5 163/6/5
f 167/2/5 163/2/5 166/2/5
f 168/6/5 164/6/5 167/6/5
f 171/1/5 170/1/5 169/1/5
f 172/1/5 170/1/5 171/1/5
f 173/1/5 170/1/5 172/1/5
f 174/1/5 170/1/5 173/1/5
f 175/2/5 173/2/5 172/2/5
f 176/2/5 173/2/5 175/2/5
f 177/3/6 178/3/6 179/3/6
f 179/3/6 178/3/6 180/3/6
f 181/1/6 182/1/6 183/1/6
f 183/1/6 182/1/6 184/1/6
