# MagicaVoxel @ Ephtracy

# group
o 

# material
mtllib door-2.mtl
usemtl palette

# normals
vn -1 0 0
vn 1 0 0
vn 0 0 1
vn 0 0 -1
vn 0 -1 0
vn 0 1 0

# texcoords
vt 0.513672 0.5
vt 0.537109 0.5
vt 0.962891 0.5

# verts
v -0.2 -0.7 0.4
v -0.2 -0.7 -0.3
v -0.2 -0.3 0.1
v -0.2 -0.3 0
v -0.2 -0.2 0.2
v -0.2 -0.2 0.1
v -0.2 -0.1 0.1
v -0.2 -0.1 0
v -0.2 0 0.2
v -0.2 0 0.1
v -0.2 0.5 0
v -0.2 0.5 -0.1
v -0.2 0.6 0.1
v -0.2 0.6 0
v -0.2 0.6 -0.1
v -0.2 0.8 0.1
v -0.2 0.8 0
v -0.2 0.8 -0.1
v -0.2 0.9 0
v -0.2 0.9 -0.1
v -0.2 1.1 0.4
v -0.2 1.1 -0.3
v -0.1 -0.6 0.3
v -0.1 -0.6 -0.2
v -0.1 -0.3 0.1
v -0.1 -0.3 0
v -0.1 -0.2 0.2
v -0.1 -0.2 0.1
v -0.1 -0.1 0.1
v -0.1 -0.1 0
v -0.1 0 0.2
v -0.1 0 0.1
v -0.1 0.1 0.3
v -0.1 0.1 -0.1
v -0.1 0.1 -0.2
v -0.1 0.3 0.3
v -0.1 0.3 -0.2
v -0.1 0.5 0
v -0.1 0.5 -0.1
v -0.1 0.6 0.1
v -0.1 0.6 0
v -0.1 0.6 -0.1
v -0.1 0.8 0.1
v -0.1 0.8 0
v -0.1 0.8 -0.1
v -0.1 0.9 0
v -0.1 0.9 -0.1
v -0.1 1 0.3
v -0.1 1 -0.2
v 0 -0.7 0.4
v 0 -0.7 -0.3
v 0 -0.6 0.3
v 0 -0.6 -0.2
v 0 0.1 0.3
v 0 0.1 -0.1
v 0 0.1 -0.2
v 0 0.1 -0.3
v 0 0.2 -0.1
v 0 0.2 -0.2
v 0 0.3 0.3
v 0 0.3 -0.1
v 0 0.3 -0.2
v 0 0.3 -0.3
v 0 1 0.3
v 0 1 -0.2
v 0 1.1 0.4
v 0 1.1 -0.3
v 0.1 0.1 -0.2
v 0.1 0.1 -0.3
v 0.1 0.2 -0.1
v 0.1 0.2 -0.2
v 0.1 0.2 -0.3
v 0.1 0.3 -0.1
v 0.1 0.3 -0.2
v 0.1 0.3 -0.3
v -0.2 -0.7 0.4
v -0.2 1.1 0.4
v 0 -0.7 0.4
v 0 1.1 0.4
v -0.2 -0.1 0.1
v -0.2 0 0.1
v -0.1 -0.1 0.1
v -0.1 0 0.1
v -0.2 -0.3 0
v -0.2 -0.1 0
v -0.2 0.6 0
v -0.2 0.8 0
v -0.1 -0.3 0
v -0.1 -0.1 0
v -0.1 0.6 0
v -0.1 0.8 0
v -0.2 0.5 -0.1
v -0.2 0.6 -0.1
v -0.2 0.8 -0.1
v -0.2 0.9 -0.1
v -0.1 0.5 -0.1
v -0.1 0.6 -0.1
v -0.1 0.8 -0.1
v -0.1 0.9 -0.1
v 0 0.2 -0.1
v 0 0.3 -0.1
v 0.1 0.2 -0.1
v 0.1 0.3 -0.1
v -0.1 -0.6 -0.2
v -0.1 0.1 -0.2
v -0.1 0.3 -0.2
v -0.1 1 -0.2
v 0 -0.6 -0.2
v 0 0.1 -0.2
v 0 0.2 -0.2
v 0 0.3 -0.2
v 0 1 -0.2
v 0.1 0.1 -0.2
v 0.1 0.2 -0.2
v -0.1 -0.6 0.3
v -0.1 0.1 0.3
v -0.1 0.3 0.3
v -0.1 1 0.3
v 0 -0.6 0.3
v 0 0.1 0.3
v 0 0.3 0.3
v 0 1 0.3
v -0.2 -0.2 0.2
v -0.2 0 0.2
v -0.1 -0.2 0.2
v -0.1 0 0.2
v -0.2 -0.3 0.1
v -0.2 -0.2 0.1
v -0.2 0.6 0.1
v -0.2 0.8 0.1
v -0.1 -0.3 0.1
v -0.1 -0.2 0.1
v -0.1 0.6 0.1
v -0.1 0.8 0.1
v -0.2 0.5 0
v -0.2 0.6 0
v -0.2 0.8 0
v -0.2 0.9 0
v -0.1 0.5 0
v -0.1 0.6 0
v -0.1 0.8 0
v -0.1 0.9 0
v -0.2 -0.7 -0.3
v -0.2 1.1 -0.3
v 0 -0.7 -0.3
v 0 0.1 -0.3
v 0 0.2 -0.3
v 0 0.3 -0.3
v 0 1.1 -0.3
v 0.1 0.1 -0.3
v 0.1 0.2 -0.3
v 0.1 0.3 -0.3
v -0.2 -0.7 0.4
v 0 -0.7 0.4
v -0.2 -0.7 -0.3
v 0 -0.7 -0.3
v -0.2 -0.1 0.1
v -0.1 -0.1 0.1
v -0.2 -0.1 0
v -0.1 -0.1 0
v -0.2 0 0.2
v -0.1 0 0.2
v -0.2 0 0.1
v -0.1 0 0.1
v -0.1 0.1 0.3
v 0 0.1 0.3
v -0.1 0.1 -0.1
v 0 0.1 -0.1
v -0.1 0.1 -0.2
v 0 0.1 -0.2
v 0.1 0.1 -0.2
v 0 0.1 -0.3
v 0.1 0.1 -0.3
v 0 0.2 -0.1
v 0.1 0.2 -0.1
v 0 0.2 -0.2
v 0.1 0.2 -0.2
v -0.2 0.6 0
v -0.1 0.6 0
v -0.2 0.6 -0.1
v -0.1 0.6 -0.1
v -0.2 0.8 0.1
v -0.1 0.8 0.1
v -0.2 0.8 0
v -0.1 0.8 0
v -0.2 0.9 0
v -0.1 0.9 0
v -0.2 0.9 -0.1
v -0.1 0.9 -0.1
v -0.1 1 0.3
v 0 1 0.3
v -0.1 1 -0.2
v 0 1 -0.2
v -0.1 -0.6 0.3
v 0 -0.6 0.3
v -0.1 -0.6 -0.2
v 0 -0.6 -0.2
v -0.2 -0.3 0.1
v -0.1 -0.3 0.1
v -0.2 -0.3 0
v -0.1 -0.3 0
v -0.2 -0.2 0.2
v -0.1 -0.2 0.2
v -0.2 -0.2 0.1
v -0.1 -0.2 0.1
v -0.1 0.3 0.3
v 0 0.3 0.3
v 0 0.3 -0.1
v 0.1 0.3 -0.1
v -0.1 0.3 -0.2
v 0 0.3 -0.2
v 0.1 0.3 -0.2
v 0 0.3 -0.3
v 0.1 0.3 -0.3
v -0.2 0.5 0
v -0.1 0.5 0
v -0.2 0.5 -0.1
v -0.1 0.5 -0.1
v -0.2 0.6 0.1
v -0.1 0.6 0.1
v -0.2 0.6 0
v -0.1 0.6 0
v -0.2 0.8 0
v -0.1 0.8 0
v -0.2 0.8 -0.1
v -0.1 0.8 -0.1
v -0.2 1.1 0.4
v 0 1.1 0.4
v -0.2 1.1 -0.3
v 0 1.1 -0.3

# faces
f 3/3/1 2/3/1 1/3/1
f 4/3/1 2/3/1 3/3/1
f 5/3/1 3/3/1 1/3/1
f 6/3/1 3/3/1 5/3/1
f 8/3/1 2/3/1 4/3/1
f 9/3/1 5/3/1 1/3/1
f 10/3/1 8/3/1 7/3/1
f 11/3/1 2/3/1 8/3/1
f 11/3/1 10/3/1 9/3/1
f 11/3/1 8/3/1 10/3/1
f 12/3/1 2/3/1 11/3/1
f 13/3/1 11/3/1 9/3/1
f 14/3/1 11/3/1 13/3/1
f 15/3/1 2/3/1 12/3/1
f 16/3/1 13/3/1 9/3/1
f 17/3/1 15/3/1 14/3/1
f 18/3/1 2/3/1 15/3/1
f 18/3/1 15/3/1 17/3/1
f 19/3/1 17/3/1 16/3/1
f 20/3/1 2/3/1 18/3/1
f 21/3/1 9/3/1 1/3/1
f 21/3/1 20/3/1 19/3/1
f 21/3/1 16/3/1 9/3/1
f 21/3/1 19/3/1 16/3/1
f 22/3/1 2/3/1 20/3/1
f 22/3/1 20/3/1 21/3/1
f 23/3/2 24/3/2 25/3/2
f 25/3/2 24/3/2 26/3/2
f 23/3/2 25/3/2 27/3/2
f 27/3/2 25/3/2 28/3/2
f 26/3/2 24/3/2 30/3/2
f 23/3/2 27/3/2 31/3/2
f 29/3/2 30/3/2 32/3/2
f 23/3/2 31/3/2 33/3/2
f 31/3/2 32/3/2 33/3/2
f 32/3/2 30/3/2 34/3/2
f 33/3/2 32/3/2 34/3/2
f 30/3/2 24/3/2 34/3/2
f 34/3/2 24/3/2 35/3/2
f 36/3/2 37/3/2 38/3/2
f 38/3/2 37/3/2 39/3/2
f 36/3/2 38/3/2 40/3/2
f 40/3/2 38/3/2 41/3/2
f 39/3/2 37/3/2 42/3/2
f 36/3/2 40/3/2 43/3/2
f 41/3/2 42/3/2 44/3/2
f 42/3/2 37/3/2 45/3/2
f 44/3/2 42/3/2 45/3/2
f 43/3/2 44/3/2 46/3/2
f 45/3/2 37/3/2 47/3/2
f 36/3/2 43/3/2 48/3/2
f 46/3/2 47/3/2 48/3/2
f 43/3/2 46/3/2 48/3/2
f 47/3/2 37/3/2 49/3/2
f 48/3/2 47/3/2 49/3/2
f 50/3/2 51/3/2 52/3/2
f 52/3/2 51/3/2 53/3/2
f 50/3/2 52/3/2 54/3/2
f 53/3/2 51/3/2 56/3/2
f 56/3/2 51/3/2 57/3/2
f 54/3/2 55/3/2 58/3/2
f 55/2/2 56/2/2 58/2/2
f 58/2/2 56/2/2 59/2/2
f 50/3/2 54/3/2 60/3/2
f 54/3/2 58/3/2 60/3/2
f 60/3/2 58/3/2 61/3/2
f 50/3/2 60/3/2 64/3/2
f 62/3/2 63/3/2 65/3/2
f 50/3/2 64/3/2 66/3/2
f 64/3/2 65/3/2 66/3/2
f 65/3/2 63/3/2 67/3/2
f 66/3/2 65/3/2 67/3/2
f 68/2/2 69/2/2 71/2/2
f 71/2/2 69/2/2 72/2/2
f 70/2/2 71/2/2 73/2/2
f 71/1/2 72/1/2 74/1/2
f 73/2/2 71/2/2 74/2/2
f 74/1/2 72/1/2 75/1/2
f 78/3/3 77/3/3 76/3/3
f 79/3/3 77/3/3 78/3/3
f 82/3/3 81/3/3 80/3/3
f 83/3/3 81/3/3 82/3/3
f 88/3/3 85/3/3 84/3/3
f 89/3/3 85/3/3 88/3/3
f 90/3/3 87/3/3 86/3/3
f 91/3/3 87/3/3 90/3/3
f 96/3/3 93/3/3 92/3/3
f 97/3/3 93/3/3 96/3/3
f 98/3/3 95/3/3 94/3/3
f 99/3/3 95/3/3 98/3/3
f 102/2/3 101/2/3 100/2/3
f 103/2/3 101/2/3 102/2/3
f 108/3/3 105/3/3 104/3/3
f 109/3/3 105/3/3 108/3/3
f 111/3/3 107/3/3 106/3/3
f 112/3/3 107/3/3 111/3/3
f 113/2/3 110/2/3 109/2/3
f 114/2/3 110/2/3 113/2/3
f 115/3/4 116/3/4 119/3/4
f 119/3/4 116/3/4 120/3/4
f 117/3/4 118/3/4 121/3/4
f 121/3/4 118/3/4 122/3/4
f 123/3/4 124/3/4 125/3/4
f 125/3/4 124/3/4 126/3/4
f 127/3/4 128/3/4 131/3/4
f 131/3/4 128/3/4 132/3/4
f 129/3/4 130/3/4 133/3/4
f 133/3/4 130/3/4 134/3/4
f 135/3/4 136/3/4 139/3/4
f 139/3/4 136/3/4 140/3/4
f 137/3/4 138/3/4 141/3/4
f 141/3/4 138/3/4 142/3/4
f 143/3/4 144/3/4 145/3/4
f 145/3/4 144/3/4 146/3/4
f 146/3/4 144/3/4 147/3/4
f 147/3/4 144/3/4 148/3/4
f 148/3/4 144/3/4 149/3/4
f 146/2/4 147/2/4 150/2/4
f 147/1/4 148/1/4 151/1/4
f 150/2/4 147/2/4 151/2/4
f 151/1/4 148/1/4 152/1/4
f 155/3/5 154/3/5 153/3/5
f 156/3/5 154/3/5 155/3/5
f 159/3/5 158/3/5 157/3/5
f 160/3/5 158/3/5 159/3/5
f 163/3/5 162/3/5 161/3/5
f 164/3/5 162/3/5 163/3/5
f 167/3/5 166/3/5 165/3/5
f 168/3/5 166/3/5 167/3/5
f 169/2/5 168/2/5 167/2/5
f 170/2/5 168/2/5 169/2/5
f 172/2/5 171/2/5 170/2/5
f 173/2/5 171/2/5 172/2/5
f 176/2/5 175/2/5 174/2/5
f 177/2/5 175/2/5 176/2/5
f 180/3/5 179/3/5 178/3/5
f 181/3/5 179/3/5 180/3/5
f 184/3/5 183/3/5 182/3/5
f 185/3/5 183/3/5 184/3/5
f 188/3/5 187/3/5 186/3/5
f 189/3/5 187/3/5 188/3/5
f 192/3/5 191/3/5 190/3/5
f 193/3/5 191/3/5 192/3/5
f 194/3/6 195/3/6 196/3/6
f 196/3/6 195/3/6 197/3/6
f 198/3/6 199/3/6 200/3/6
f 200/3/6 199/3/6 201/3/6
f 202/3/6 203/3/6 204/3/6
f 204/3/6 203/3/6 205/3/6
f 206/3/6 207/3/6 208/3/6
f 206/3/6 208/3/6 210/3/6
f 208/2/6 209/2/6 211/2/6
f 210/3/6 208/3/6 211/3/6
f 211/2/6 209/2/6 212/2/6
f 211/1/6 212/1/6 213/1/6
f 213/1/6 212/1/6 214/1/6
f 215/3/6 216/3/6 217/3/6
f 217/3/6 216/3/6 218/3/6
f 219/3/6 220/3/6 221/3/6
f 221/3/6 220/3/6 222/3/6
f 223/3/6 224/3/6 225/3/6
f 225/3/6 224/3/6 226/3/6
f 227/3/6 228/3/6 229/3/6
f 229/3/6 228/3/6 230/3/6
