# MagicaVoxel @ Ephtracy

# group
o 

# material
mtllib door-3.mtl
usemtl palette

# normals
vn -1 0 0
vn 1 0 0
vn 0 0 1
vn 0 0 -1
vn 0 -1 0
vn 0 1 0

# texcoords
vt 0.513672 0.5
vt 0.537109 0.5
vt 0.962891 0.5

# verts
v -0.2 -0.7 0.4
v -0.2 -0.7 -0.3
v -0.2 -0.3 0.1
v -0.2 -0.3 0
v -0.2 -0.2 0.2
v -0.2 -0.2 0.1
v -0.2 -0.1 0.1
v -0.2 -0.1 0
v -0.2 0 0.2
v -0.2 0 0.1
v -0.2 0.1 0.2
v -0.2 0.1 0.1
v -0.2 0.2 0.1
v -0.2 0.2 0
v -0.2 0.3 0.2
v -0.2 0.3 0.1
v -0.2 0.4 0.2
v -0.2 0.4 0.1
v -0.2 0.4 0
v -0.2 0.5 0.2
v -0.2 0.5 0.1
v -0.2 0.5 0
v -0.2 0.5 -0.1
v -0.2 0.6 0.1
v -0.2 0.6 0
v -0.2 0.6 -0.1
v -0.2 0.8 0.3
v -0.2 0.8 0.1
v -0.2 0.8 0
v -0.2 0.8 -0.1
v -0.2 0.9 0.2
v -0.2 0.9 0.1
v -0.2 0.9 0
v -0.2 0.9 -0.1
v -0.2 1 0.4
v -0.2 1 0.3
v -0.2 1.1 0.2
v -0.2 1.1 -0.3
v -0.1 -0.6 0.3
v -0.1 -0.6 -0.2
v -0.1 -0.3 0.1
v -0.1 -0.3 0
v -0.1 -0.2 0.2
v -0.1 -0.2 0.1
v -0.1 -0.1 0.1
v -0.1 -0.1 0
v -0.1 0 0.2
v -0.1 0 0.1
v -0.1 0.1 0.3
v -0.1 0.1 0.2
v -0.1 0.1 0.1
v -0.1 0.1 -0.1
v -0.1 0.1 -0.2
v -0.1 0.3 0.3
v -0.1 0.3 0.2
v -0.1 0.3 0.1
v -0.1 0.3 0
v -0.1 0.3 -0.2
v -0.1 0.4 0.2
v -0.1 0.4 0.1
v -0.1 0.4 0
v -0.1 0.5 0.2
v -0.1 0.5 0.1
v -0.1 0.5 0
v -0.1 0.5 -0.1
v -0.1 0.6 0.1
v -0.1 0.6 0
v -0.1 0.6 -0.1
v -0.1 0.8 0.3
v -0.1 0.8 0.1
v -0.1 0.8 0
v -0.1 0.8 -0.1
v -0.1 0.9 0.2
v -0.1 0.9 0.1
v -0.1 0.9 0
v -0.1 0.9 -0.1
v -0.1 1 0.2
v -0.1 1 -0.2
v 0 -0.7 0.4
v 0 -0.7 -0.3
v 0 -0.6 0.3
v 0 -0.6 -0.2
v 0 0.1 0.3
v 0 0.1 0.2
v 0 0.1 0.1
v 0 0.1 -0.1
v 0 0.1 -0.2
v 0 0.1 -0.3
v 0 0.2 0.1
v 0 0.2 0
v 0 0.2 -0.1
v 0 0.2 -0.2
v 0 0.3 0.3
v 0 0.3 0.2
v 0 0.3 0
v 0 0.3 -0.1
v 0 0.3 -0.2
v 0 0.3 -0.3
v 0 1 0.4
v 0 1 0.3
v 0 1 0.2
v 0 1 -0.2
v 0 1.1 0.2
v 0 1.1 -0.3
v 0.1 0.1 -0.2
v 0.1 0.1 -0.3
v 0.1 0.2 -0.1
v 0.1 0.2 -0.2
v 0.1 0.2 -0.3
v 0.1 0.3 -0.1
v 0.1 0.3 -0.2
v 0.1 0.3 -0.3
v -0.2 -0.7 0.4
v -0.2 1 0.4
v 0 -0.7 0.4
v 0 1 0.4
v -0.2 0.9 0.2
v -0.2 1.1 0.2
v -0.1 0.9 0.2
v -0.1 1 0.2
v 0 1 0.2
v 0 1.1 0.2
v -0.2 -0.1 0.1
v -0.2 0 0.1
v -0.2 0.1 0.1
v -0.2 0.2 0.1
v -0.2 0.4 0.1
v -0.2 0.5 0.1
v -0.2 0.8 0.1
v -0.2 0.9 0.1
v -0.1 -0.1 0.1
v -0.1 0 0.1
v -0.1 0.1 0.1
v -0.1 0.4 0.1
v -0.1 0.5 0.1
v -0.1 0.8 0.1
v -0.1 0.9 0.1
v 0 0.1 0.1
v 0 0.2 0.1
v -0.2 -0.3 0
v -0.2 -0.1 0
v -0.2 0.2 0
v -0.2 0.4 0
v -0.2 0.6 0
v -0.2 0.8 0
v -0.1 -0.3 0
v -0.1 -0.1 0
v -0.1 0.3 0
v -0.1 0.4 0
v -0.1 0.6 0
v -0.1 0.8 0
v 0 0.2 0
v 0 0.3 0
v -0.2 0.5 -0.1
v -0.2 0.6 -0.1
v -0.2 0.8 -0.1
v -0.2 0.9 -0.1
v -0.1 0.5 -0.1
v -0.1 0.6 -0.1
v -0.1 0.8 -0.1
v -0.1 0.9 -0.1
v 0 0.2 -0.1
v 0 0.3 -0.1
v 0.1 0.2 -0.1
v 0.1 0.3 -0.1
v -0.1 -0.6 -0.2
v -0.1 0.1 -0.2
v -0.1 0.3 -0.2
v -0.1 1 -0.2
v 0 -0.6 -0.2
v 0 0.1 -0.2
v 0 0.2 -0.2
v 0 0.3 -0.2
v 0 1 -0.2
v 0.1 0.1 -0.2
v 0.1 0.2 -0.2
v -0.2 0.8 0.3
v -0.2 1 0.3
v -0.1 -0.6 0.3
v -0.1 0.1 0.3
v -0.1 0.3 0.3
v -0.1 0.8 0.3
v 0 -0.6 0.3
v 0 0.1 0.3
v 0 0.3 0.3
v 0 1 0.3
v -0.2 -0.2 0.2
v -0.2 0 0.2
v -0.2 0.1 0.2
v -0.2 0.3 0.2
v -0.2 0.4 0.2
v -0.2 0.5 0.2
v -0.1 -0.2 0.2
v -0.1 0 0.2
v -0.1 0.1 0.2
v -0.1 0.3 0.2
v -0.1 0.4 0.2
v -0.1 0.5 0.2
v 0 0.1 0.2
v 0 0.3 0.2
v -0.2 -0.3 0.1
v -0.2 -0.2 0.1
v -0.2 0.3 0.1
v -0.2 0.4 0.1
v -0.2 0.6 0.1
v -0.2 0.8 0.1
v -0.1 -0.3 0.1
v -0.1 -0.2 0.1
v -0.1 0.3 0.1
v -0.1 0.4 0.1
v -0.1 0.6 0.1
v -0.1 0.8 0.1
v -0.2 0.5 0
v -0.2 0.6 0
v -0.2 0.8 0
v -0.2 0.9 0
v -0.1 0.5 0
v -0.1 0.6 0
v -0.1 0.8 0
v -0.1 0.9 0
v -0.2 -0.7 -0.3
v -0.2 1.1 -0.3
v 0 -0.7 -0.3
v 0 0.1 -0.3
v 0 0.2 -0.3
v 0 0.3 -0.3
v 0 1.1 -0.3
v 0.1 0.1 -0.3
v 0.1 0.2 -0.3
v 0.1 0.3 -0.3
v -0.2 -0.7 0.4
v 0 -0.7 0.4
v -0.2 -0.7 -0.3
v 0 -0.7 -0.3
v -0.2 -0.1 0.1
v -0.1 -0.1 0.1
v -0.2 -0.1 0
v -0.1 -0.1 0
v -0.2 0 0.2
v -0.1 0 0.2
v -0.2 0 0.1
v -0.1 0 0.1
v -0.1 0.1 0.3
v 0 0.1 0.3
v -0.1 0.1 0.2
v 0 0.1 0.2
v -0.1 0.1 0.1
v 0 0.1 0.1
v -0.1 0.1 -0.1
v 0 0.1 -0.1
v -0.1 0.1 -0.2
v 0 0.1 -0.2
v 0.1 0.1 -0.2
v 0 0.1 -0.3
v 0.1 0.1 -0.3
v 0 0.2 -0.1
v 0.1 0.2 -0.1
v 0 0.2 -0.2
v 0.1 0.2 -0.2
v -0.2 0.3 0.2
v -0.1 0.3 0.2
v -0.2 0.3 0.1
v -0.1 0.3 0.1
v -0.2 0.4 0.1
v -0.1 0.4 0.1
v -0.2 0.4 0
v -0.1 0.4 0
v -0.2 0.5 0.2
v -0.1 0.5 0.2
v -0.2 0.5 0.1
v -0.1 0.5 0.1
v -0.2 0.6 0
v -0.1 0.6 0
v -0.2 0.6 -0.1
v -0.1 0.6 -0.1
v -0.2 0.8 0.1
v -0.1 0.8 0.1
v -0.2 0.8 0
v -0.1 0.8 0
v -0.2 0.9 0.2
v -0.1 0.9 0.2
v -0.2 0.9 0.1
v -0.1 0.9 0.1
v -0.2 0.9 0
v -0.1 0.9 0
v -0.2 0.9 -0.1
v -0.1 0.9 -0.1
v -0.1 1 0.2
v 0 1 0.2
v -0.1 1 -0.2
v 0 1 -0.2
v -0.1 -0.6 0.3
v 0 -0.6 0.3
v -0.1 -0.6 -0.2
v 0 -0.6 -0.2
v -0.2 -0.3 0.1
v -0.1 -0.3 0.1
v -0.2 -0.3 0
v -0.1 -0.3 0
v -0.2 -0.2 0.2
v -0.1 -0.2 0.2
v -0.2 -0.2 0.1
v -0.1 -0.2 0.1
v -0.2 0.1 0.2
v -0.1 0.1 0.2
v -0.2 0.1 0.1
v -0.1 0.1 0.1
v -0.2 0.2 0.1
v 0 0.2 0.1
v -0.2 0.2 0
v 0 0.2 0
v -0.1 0.3 0.3
v 0 0.3 0.3
v -0.1 0.3 0.2
v 0 0.3 0.2
v -0.1 0.3 0
v 0 0.3 0
v 0 0.3 -0.1
v 0.1 0.3 -0.1
v -0.1 0.3 -0.2
v 0 0.3 -0.2
v 0.1 0.3 -0.2
v 0 0.3 -0.3
v 0.1 0.3 -0.3
v -0.2 0.4 0.2
v -0.1 0.4 0.2
v -0.2 0.4 0.1
v -0.1 0.4 0.1
v -0.2 0.5 0
v -0.1 0.5 0
v -0.2 0.5 -0.1
v -0.1 0.5 -0.1
v -0.2 0.6 0.1
v -0.1 0.6 0.1
v -0.2 0.6 0
v -0.1 0.6 0
v -0.2 0.8 0.3
v -0.1 0.8 0.3
v -0.2 0.8 0.1
v -0.1 0.8 0.1
v -0.2 0.8 0
v -0.1 0.8 0
v -0.2 0.8 -0.1
v -0.1 0.8 -0.1
v -0.2 1 0.4
v 0 1 0.4
v -0.2 1 0.3
v 0 1 0.3
v -0.2 1.1 0.2
v 0 1.1 0.2
v -0.2 1.1 -0.3
v 0 1.1 -0.3

# faces
f 3/3/1 2/3/1 1/3/1
f 4/3/1 2/3/1 3/3/1
f 5/3/1 3/3/1 1/3/1
f 6/3/1 3/3/1 5/3/1
f 8/3/1 2/3/1 4/3/1
f 9/3/1 5/3/1 1/3/1
f 10/3/1 8/3/1 7/3/1
f 11/3/1 9/3/1 1/3/1
f 11/3/1 10/3/1 9/3/1
f 12/3/1 8/3/1 10/3/1
f 12/3/1 10/3/1 11/3/1
f 13/3/1 8/3/1 12/3/1
f 14/3/1 2/3/1 8/3/1
f 14/3/1 8/3/1 13/3/1
f 15/3/1 11/3/1 1/3/1
f 17/3/1 15/3/1 1/3/1
f 17/3/1 16/3/1 15/3/1
f 18/3/1 16/3/1 17/3/1
f 19/3/1 2/3/1 14/3/1
f 20/3/1 17/3/1 1/3/1
f 21/3/1 19/3/1 18/3/1
f 22/3/1 2/3/1 19/3/1
f 22/3/1 19/3/1 21/3/1
f 23/3/1 2/3/1 22/3/1
f 24/3/1 21/3/1 20/3/1
f 24/3/1 22/3/1 21/3/1
f 25/3/1 22/3/1 24/3/1
f 26/3/1 2/3/1 23/3/1
f 27/3/1 20/3/1 1/3/1
f 27/3/1 24/3/1 20/3/1
f 28/3/1 24/3/1 27/3/1
f 29/3/1 26/3/1 25/3/1
f 30/3/1 2/3/1 26/3/1
f 30/3/1 26/3/1 29/3/1
f 32/3/1 29/3/1 28/3/1
f 33/3/1 29/3/1 32/3/1
f 34/3/1 2/3/1 30/3/1
f 35/3/1 27/3/1 1/3/1
f 36/3/1 27/3/1 35/3/1
f 37/3/1 33/3/1 32/3/1
f 37/3/1 34/3/1 33/3/1
f 37/3/1 32/3/1 31/3/1
f 38/3/1 2/3/1 34/3/1
f 38/3/1 34/3/1 37/3/1
f 39/3/2 40/3/2 41/3/2
f 41/3/2 40/3/2 42/3/2
f 39/3/2 41/3/2 43/3/2
f 43/3/2 41/3/2 44/3/2
f 42/3/2 40/3/2 46/3/2
f 39/3/2 43/3/2 47/3/2
f 45/3/2 46/3/2 48/3/2
f 39/3/2 47/3/2 49/3/2
f 47/3/2 48/3/2 49/3/2
f 49/3/2 48/3/2 50/3/2
f 48/3/2 46/3/2 51/3/2
f 50/3/2 48/3/2 51/3/2
f 46/3/2 40/3/2 52/3/2
f 51/3/2 46/3/2 52/3/2
f 52/3/2 40/3/2 53/3/2
f 54/3/2 55/3/2 59/3/2
f 55/3/2 56/3/2 59/3/2
f 59/3/2 56/3/2 60/3/2
f 57/3/2 58/3/2 61/3/2
f 54/3/2 59/3/2 62/3/2
f 60/3/2 61/3/2 63/3/2
f 61/3/2 58/3/2 64/3/2
f 63/3/2 61/3/2 64/3/2
f 64/3/2 58/3/2 65/3/2
f 62/3/2 63/3/2 66/3/2
f 63/3/2 64/3/2 66/3/2
f 66/3/2 64/3/2 67/3/2
f 65/3/2 58/3/2 68/3/2
f 54/3/2 62/3/2 69/3/2
f 62/3/2 66/3/2 69/3/2
f 69/3/2 66/3/2 70/3/2
f 67/3/2 68/3/2 71/3/2
f 68/3/2 58/3/2 72/3/2
f 71/3/2 68/3/2 72/3/2
f 70/3/2 71/3/2 74/3/2
f 74/3/2 71/3/2 75/3/2
f 72/3/2 58/3/2 76/3/2
f 74/3/2 75/3/2 77/3/2
f 75/3/2 76/3/2 77/3/2
f 73/3/2 74/3/2 77/3/2
f 76/3/2 58/3/2 78/3/2
f 77/3/2 76/3/2 78/3/2
f 79/3/2 80/3/2 81/3/2
f 81/3/2 80/3/2 82/3/2
f 79/3/2 81/3/2 83/3/2
f 82/3/2 80/3/2 87/3/2
f 87/3/2 80/3/2 88/3/2
f 85/3/2 86/3/2 89/3/2
f 89/3/2 86/3/2 90/3/2
f 86/2/2 87/2/2 91/2/2
f 90/3/2 86/3/2 91/3/2
f 91/2/2 87/2/2 92/2/2
f 79/3/2 83/3/2 93/3/2
f 83/3/2 84/3/2 93/3/2
f 93/3/2 84/3/2 94/3/2
f 90/3/2 91/3/2 95/3/2
f 95/3/2 91/3/2 96/3/2
f 79/3/2 93/3/2 99/3/2
f 99/3/2 93/3/2 100/3/2
f 97/3/2 98/3/2 102/3/2
f 101/3/2 102/3/2 103/3/2
f 102/3/2 98/3/2 104/3/2
f 103/3/2 102/3/2 104/3/2
f 105/2/2 106/2/2 108/2/2
f 108/2/2 106/2/2 109/2/2
f 107/2/2 108/2/2 110/2/2
f 108/1/2 109/1/2 111/1/2
f 110/2/2 108/2/2 111/2/2
f 111/1/2 109/1/2 112/1/2
f 115/3/3 114/3/3 113/3/3
f 116/3/3 114/3/3 115/3/3
f 119/3/3 118/3/3 117/3/3
f 120/3/3 118/3/3 119/3/3
f 121/3/3 118/3/3 120/3/3
f 122/3/3 118/3/3 121/3/3
f 131/3/3 124/3/3 123/3/3
f 132/3/3 124/3/3 131/3/3
f 133/3/3 126/3/3 125/3/3
f 134/3/3 128/3/3 127/3/3
f 135/3/3 128/3/3 134/3/3
f 136/3/3 130/3/3 129/3/3
f 137/3/3 130/3/3 136/3/3
f 138/3/3 126/3/3 133/3/3
f 139/3/3 126/3/3 138/3/3
f 146/3/3 141/3/3 140/3/3
f 147/3/3 141/3/3 146/3/3
f 148/3/3 143/3/3 142/3/3
f 149/3/3 143/3/3 148/3/3
f 150/3/3 145/3/3 144/3/3
f 151/3/3 145/3/3 150/3/3
f 152/3/3 148/3/3 142/3/3
f 153/3/3 148/3/3 152/3/3
f 158/3/3 155/3/3 154/3/3
f 159/3/3 155/3/3 158/3/3
f 160/3/3 157/3/3 156/3/3
f 161/3/3 157/3/3 160/3/3
f 164/2/3 163/2/3 162/2/3
f 165/2/3 163/2/3 164/2/3
f 170/3/3 167/3/3 166/3/3
f 171/3/3 167/3/3 170/3/3
f 173/3/3 169/3/3 168/3/3
f 174/3/3 169/3/3 173/3/3
f 175/2/3 172/2/3 171/2/3
f 176/2/3 172/2/3 175/2/3
f 177/3/4 178/3/4 182/3/4
f 179/3/4 180/3/4 183/3/4
f 183/3/4 180/3/4 184/3/4
f 181/3/4 182/3/4 185/3/4
f 182/3/4 178/3/4 186/3/4
f 185/3/4 182/3/4 186/3/4
f 187/3/4 188/3/4 193/3/4
f 193/3/4 188/3/4 194/3/4
f 189/3/4 190/3/4 195/3/4
f 195/3/4 190/3/4 196/3/4
f 191/3/4 192/3/4 197/3/4
f 197/3/4 192/3/4 198/3/4
f 195/3/4 196/3/4 199/3/4
f 199/3/4 196/3/4 200/3/4
f 201/3/4 202/3/4 207/3/4
f 207/3/4 202/3/4 208/3/4
f 203/3/4 204/3/4 209/3/4
f 209/3/4 204/3/4 210/3/4
f 205/3/4 206/3/4 211/3/4
f 211/3/4 206/3/4 212/3/4
f 213/3/4 214/3/4 217/3/4
f 217/3/4 214/3/4 218/3/4
f 215/3/4 216/3/4 219/3/4
f 219/3/4 216/3/4 220/3/4
f 221/3/4 222/3/4 223/3/4
f 223/3/4 222/3/4 224/3/4
f 224/3/4 222/3/4 225/3/4
f 225/3/4 222/3/4 226/3/4
f 226/3/4 222/3/4 227/3/4
f 224/2/4 225/2/4 228/2/4
f 225/1/4 226/1/4 229/1/4
f 228/2/4 225/2/4 229/2/4
f 229/1/4 226/1/4 230/1/4
f 233/3/5 232/3/5 231/3/5
f 234/3/5 232/3/5 233/3/5
f 237/3/5 236/3/5 235/3/5
f 238/3/5 236/3/5 237/3/5
f 241/3/5 240/3/5 239/3/5
f 242/3/5 240/3/5 241/3/5
f 245/3/5 244/3/5 243/3/5
f 246/3/5 244/3/5 245/3/5
f 249/3/5 248/3/5 247/3/5
f 250/3/5 248/3/5 249/3/5
f 251/2/5 250/2/5 249/2/5
f 252/2/5 250/2/5 251/2/5
f 254/2/5 253/2/5 252/2/5
f 255/2/5 253/2/5 254/2/5
f 258/2/5 257/2/5 256/2/5
f 259/2/5 257/2/5 258/2/5
f 262/3/5 261/3/5 260/3/5
f 263/3/5 261/3/5 262/3/5
f 266/3/5 265/3/5 264/3/5
f 267/3/5 265/3/5 266/3/5
f 270/3/5 269/3/5 268/3/5
f 271/3/5 269/3/5 270/3/5
f 274/3/5 273/3/5 272/3/5
f 275/3/5 273/3/5 274/3/5
f 278/3/5 277/3/5 276/3/5
f 279/3/5 277/3/5 278/3/5
f 282/3/5 281/3/5 280/3/5
f 283/3/5 281/3/5 282/3/5
f 286/3/5 285/3/5 284/3/5
f 287/3/5 285/3/5 286/3/5
f 290/3/5 289/3/5 288/3/5
f 291/3/5 289/3/5 290/3/5
f 292/3/6 293/3/6 294/3/6
f 294/3/6 293/3/6 295/3/6
f 296/3/6 297/3/6 298/3/6
f 298/3/6 297/3/6 299/3/6
f 300/3/6 301/3/6 302/3/6
f 302/3/6 301/3/6 303/3/6
f 304/3/6 305/3/6 306/3/6
f 306/3/6 305/3/6 307/3/6
f 308/3/6 309/3/6 310/3/6
f 310/3/6 309/3/6 311/3/6
f 312/3/6 313/3/6 314/3/6
f 314/3/6 313/3/6 315/3/6
f 316/3/6 317/3/6 318/3/6
f 316/3/6 318/3/6 320/3/6
f 318/2/6 319/2/6 321/2/6
f 320/3/6 318/3/6 321/3/6
f 321/2/6 319/2/6 322/2/6
f 321/1/6 322/1/6 323/1/6
f 323/1/6 322/1/6 324/1/6
f 325/3/6 326/3/6 327/3/6
f 327/3/6 326/3/6 328/3/6
f 329/3/6 330/3/6 331/3/6
f 331/3/6 330/3/6 332/3/6
f 333/3/6 334/3/6 335/3/6
f 335/3/6 334/3/6 336/3/6
f 337/3/6 338/3/6 339/3/6
f 339/3/6 338/3/6 340/3/6
f 341/3/6 342/3/6 343/3/6
f 343/3/6 342/3/6 344/3/6
f 345/3/6 346/3/6 347/3/6
f 347/3/6 346/3/6 348/3/6
f 349/3/6 350/3/6 351/3/6
f 351/3/6 350/3/6 352/3/6
