# MagicaVoxel @ Ephtracy

# group
o 

# material
mtllib high-lamp.mtl
usemtl palette

# normals
vn -1 0 0
vn 1 0 0
vn 0 0 1
vn 0 0 -1
vn 0 -1 0
vn 0 1 0

# texcoords
vt 0.341797 0.5
vt 0.537109 0.5
vt 0.986328 0.5
vt 0.990234 0.5

# verts
v -0.3 0 0.3
v -0.3 0 -0.2
v -0.3 0.1 0.3
v -0.3 0.1 -0.2
v -0.3 1.1 0.3
v -0.3 1.1 -0.2
v -0.3 1.3 0.3
v -0.3 1.3 -0.2
v -0.2 0.7 0
v -0.2 0.7 -0.1
v -0.2 0.8 0
v -0.2 0.8 -0.1
v -0.2 1.1 0
v -0.2 1.1 -0.1
v -0.2 1.3 0.2
v -0.2 1.3 -0.1
v -0.2 1.5 0.2
v -0.2 1.5 -0.1
v -0.1 0.1 0.1
v -0.1 0.1 0
v -0.1 0.7 0
v -0.1 0.8 0
v -0.1 1.1 0.1
v -0.1 1.1 0
v -0.1 1.5 0.1
v -0.1 1.5 0
v -0.1 1.6 0.1
v -0.1 1.6 0
v -0.1 0.7 0
v -0.1 0.7 -0.1
v -0.1 0.8 0
v -0.1 0.8 -0.1
v -0.1 1.1 0
v -0.1 1.1 -0.1
v 0 0.1 0.1
v 0 0.1 0
v 0 1.1 0.1
v 0 1.1 0
v 0 1.5 0.1
v 0 1.5 0
v 0 1.6 0.1
v 0 1.6 0
v 0.1 1.3 0.2
v 0.1 1.3 -0.1
v 0.1 1.5 0.2
v 0.1 1.5 -0.1
v 0.2 0 0.3
v 0.2 0 -0.2
v 0.2 0.1 0.3
v 0.2 0.1 -0.2
v 0.2 1.1 0.3
v 0.2 1.1 -0.2
v 0.2 1.3 0.3
v 0.2 1.3 -0.2
v -0.3 0 0.3
v -0.3 0.1 0.3
v -0.3 1.1 0.3
v -0.3 1.3 0.3
v 0.2 0 0.3
v 0.2 0.1 0.3
v 0.2 1.1 0.3
v 0.2 1.3 0.3
v -0.2 1.3 0.2
v -0.2 1.5 0.2
v 0.1 1.3 0.2
v 0.1 1.5 0.2
v -0.1 0.1 0.1
v -0.1 1.1 0.1
v -0.1 1.5 0.1
v -0.1 1.6 0.1
v 0 0.1 0.1
v 0 1.1 0.1
v 0 1.5 0.1
v 0 1.6 0.1
v -0.2 0.7 0
v -0.2 0.8 0
v -0.2 1.1 0
v -0.1 0.7 0
v -0.1 0.8 0
v -0.1 1.1 0
v -0.1 0.1 0
v -0.1 0.7 0
v -0.1 0.8 0
v -0.1 1.1 0
v -0.1 1.5 0
v -0.1 1.6 0
v 0 0.1 0
v 0 1.1 0
v 0 1.5 0
v 0 1.6 0
v -0.2 0.7 -0.1
v -0.2 0.8 -0.1
v -0.2 1.1 -0.1
v -0.2 1.3 -0.1
v -0.2 1.5 -0.1
v -0.1 0.7 -0.1
v -0.1 0.8 -0.1
v -0.1 1.1 -0.1
v 0.1 1.3 -0.1
v 0.1 1.5 -0.1
v -0.3 0 -0.2
v -0.3 0.1 -0.2
v -0.3 1.1 -0.2
v -0.3 1.3 -0.2
v 0.2 0 -0.2
v 0.2 0.1 -0.2
v 0.2 1.1 -0.2
v 0.2 1.3 -0.2
v -0.3 0 0.3
v 0.2 0 0.3
v -0.3 0 -0.2
v 0.2 0 -0.2
v -0.2 0.7 0
v -0.1 0.7 0
v -0.2 0.7 -0.1
v -0.1 0.7 -0.1
v -0.3 1.1 0.3
v 0.2 1.1 0.3
v -0.1 1.1 0.1
v 0 1.1 0.1
v -0.2 1.1 0
v -0.1 1.1 0
v 0 1.1 0
v -0.2 1.1 -0.1
v -0.1 1.1 -0.1
v -0.3 1.1 -0.2
v 0.2 1.1 -0.2
v -0.3 0.1 0.3
v 0.2 0.1 0.3
v -0.1 0.1 0.1
v 0 0.1 0.1
v -0.1 0.1 0
v 0 0.1 0
v -0.3 0.1 -0.2
v 0.2 0.1 -0.2
v -0.3 1.3 0.3
v 0.2 1.3 0.3
v -0.2 1.3 0.2
v 0.1 1.3 0.2
v -0.2 1.3 -0.1
v 0.1 1.3 -0.1
v -0.3 1.3 -0.2
v 0.2 1.3 -0.2
v -0.2 1.5 0.2
v 0.1 1.5 0.2
v -0.1 1.5 0.1
v 0 1.5 0.1
v -0.1 1.5 0
v 0 1.5 0
v -0.2 1.5 -0.1
v 0.1 1.5 -0.1
v -0.1 1.6 0.1
v 0 1.6 0.1
v -0.1 1.6 0
v 0 1.6 0

# faces
f 3/2/1 2/2/1 1/2/1
f 4/2/1 2/2/1 3/2/1
f 7/1/1 6/1/1 5/1/1
f 8/1/1 6/1/1 7/1/1
f 11/3/1 10/3/1 9/3/1
f 12/3/1 10/3/1 11/3/1
f 13/4/1 12/4/1 11/4/1
f 14/4/1 12/4/1 13/4/1
f 17/1/1 16/1/1 15/1/1
f 18/1/1 16/1/1 17/1/1
f 21/2/1 20/2/1 19/2/1
f 22/2/1 21/2/1 19/2/1
f 23/2/1 22/2/1 19/2/1
f 24/2/1 22/2/1 23/2/1
f 27/1/1 26/1/1 25/1/1
f 28/1/1 26/1/1 27/1/1
f 29/3/2 30/3/2 31/3/2
f 31/3/2 30/3/2 32/3/2
f 31/4/2 32/4/2 33/4/2
f 33/4/2 32/4/2 34/4/2
f 35/2/2 36/2/2 37/2/2
f 37/2/2 36/2/2 38/2/2
f 39/1/2 40/1/2 41/1/2
f 41/1/2 40/1/2 42/1/2
f 43/1/2 44/1/2 45/1/2
f 45/1/2 44/1/2 46/1/2
f 47/2/2 48/2/2 49/2/2
f 49/2/2 48/2/2 50/2/2
f 51/1/2 52/1/2 53/1/2
f 53/1/2 52/1/2 54/1/2
f 59/2/3 56/2/3 55/2/3
f 60/2/3 56/2/3 59/2/3
f 61/1/3 58/1/3 57/1/3
f 62/1/3 58/1/3 61/1/3
f 65/1/3 64/1/3 63/1/3
f 66/1/3 64/1/3 65/1/3
f 71/2/3 68/2/3 67/2/3
f 72/2/3 68/2/3 71/2/3
f 73/1/3 70/1/3 69/1/3
f 74/1/3 70/1/3 73/1/3
f 78/3/3 76/3/3 75/3/3
f 79/4/3 77/4/3 76/4/3
f 79/3/3 76/3/3 78/3/3
f 80/4/3 77/4/3 79/4/3
f 81/2/4 82/2/4 87/2/4
f 82/2/4 83/2/4 87/2/4
f 83/2/4 84/2/4 87/2/4
f 87/2/4 84/2/4 88/2/4
f 85/1/4 86/1/4 89/1/4
f 89/1/4 86/1/4 90/1/4
f 91/3/4 92/3/4 96/3/4
f 92/4/4 93/4/4 97/4/4
f 96/3/4 92/3/4 97/3/4
f 97/4/4 93/4/4 98/4/4
f 94/1/4 95/1/4 99/1/4
f 99/1/4 95/1/4 100/1/4
f 101/2/4 102/2/4 105/2/4
f 105/2/4 102/2/4 106/2/4
f 103/1/4 104/1/4 107/1/4
f 107/1/4 104/1/4 108/1/4
f 111/2/5 110/2/5 109/2/5
f 112/2/5 110/2/5 111/2/5
f 115/3/5 114/3/5 113/3/5
f 116/3/5 114/3/5 115/3/5
f 119/1/5 118/1/5 117/1/5
f 120/1/5 118/1/5 119/1/5
f 121/1/5 119/1/5 117/1/5
f 122/1/5 119/1/5 121/1/5
f 123/1/5 118/1/5 120/1/5
f 124/1/5 121/1/5 117/1/5
f 125/1/5 123/1/5 122/1/5
f 126/1/5 124/1/5 117/1/5
f 126/1/5 125/1/5 124/1/5
f 127/1/5 123/1/5 125/1/5
f 127/1/5 125/1/5 126/1/5
f 127/1/5 118/1/5 123/1/5
f 128/2/6 129/2/6 130/2/6
f 130/2/6 129/2/6 131/2/6
f 128/2/6 130/2/6 132/2/6
f 131/2/6 129/2/6 133/2/6
f 128/2/6 132/2/6 134/2/6
f 132/2/6 133/2/6 134/2/6
f 133/2/6 129/2/6 135/2/6
f 134/2/6 133/2/6 135/2/6
f 136/1/6 137/1/6 138/1/6
f 138/1/6 137/1/6 139/1/6
f 136/1/6 138/1/6 140/1/6
f 139/1/6 137/1/6 141/1/6
f 136/1/6 140/1/6 142/1/6
f 140/1/6 141/1/6 142/1/6
f 141/1/6 137/1/6 143/1/6
f 142/1/6 141/1/6 143/1/6
f 144/1/6 145/1/6 146/1/6
f 146/1/6 145/1/6 147/1/6
f 144/1/6 146/1/6 148/1/6
f 147/1/6 145/1/6 149/1/6
f 144/1/6 148/1/6 150/1/6
f 148/1/6 149/1/6 150/1/6
f 149/1/6 145/1/6 151/1/6
f 150/1/6 149/1/6 151/1/6
f 152/1/6 153/1/6 154/1/6
f 154/1/6 153/1/6 155/1/6
