# MagicaVoxel @ Ephtracy

# group
o 

# material
mtllib lp-player.mtl
usemtl palette

# normals
vn -1 0 0
vn 1 0 0
vn 0 0 1
vn 0 0 -1
vn 0 -1 0
vn 0 1 0

# texcoords
vt 0.869141 0.5
vt 0.982422 0.5
vt 0.990234 0.5
vt 0.994141 0.5

# verts
v -0.2 0 0.2
v -0.2 0 0.1
v -0.2 0 -0.2
v -0.2 0.1 0.1
v -0.2 0.1 -0.1
v -0.2 0.1 -0.2
v -0.2 0.2 0.1
v -0.2 0.2 -0.1
v -0.2 0.4 0.2
v -0.2 0.4 0.1
v -0.1 0.1 -0.1
v -0.1 0.1 -0.2
v -0.1 0.2 -0.1
v -0.1 0.2 -0.2
v -0.1 0.3 0.1
v -0.1 0.3 0
v -0.1 0.4 0.1
v -0.1 0.4 0
v 0 0.3 0
v 0 0.3 -0.1
v 0 0.4 0
v 0 0.4 -0.1
v -0.1 0.2 0.2
v -0.1 0.2 0.1
v -0.1 0.3 0.2
v -0.1 0.3 0.1
v 0 0.3 0.2
v 0 0.3 0.1
v 0 0.4 0.2
v 0 0.4 0.1
v 0.1 0.1 0.2
v 0.1 0.1 0.1
v 0.1 0.1 -0.1
v 0.1 0.1 -0.2
v 0.1 0.2 0.2
v 0.1 0.2 0.1
v 0.1 0.2 -0.1
v 0.1 0.2 -0.2
v 0.1 0.3 0.1
v 0.1 0.3 0
v 0.1 0.4 0.1
v 0.1 0.4 0
v 0.2 0 0.2
v 0.2 0 -0.2
v 0.2 0.1 0.2
v 0.2 0.1 0.1
v 0.2 0.1 -0.1
v 0.2 0.1 -0.2
v 0.2 0.2 0.1
v 0.2 0.2 -0.1
v 0.2 0.3 0
v 0.2 0.3 -0.1
v 0.2 0.4 0
v 0.2 0.4 -0.1
v -0.2 0 0.2
v -0.2 0.4 0.2
v -0.1 0 0.2
v -0.1 0.1 0.2
v -0.1 0.2 0.2
v -0.1 0.3 0.2
v 0 0.3 0.2
v 0 0.4 0.2
v 0.1 0.1 0.2
v 0.1 0.2 0.2
v 0.2 0 0.2
v 0.2 0.1 0.2
v 0 0.3 0.1
v 0 0.4 0.1
v 0.1 0.1 0.1
v 0.1 0.2 0.1
v 0.1 0.3 0.1
v 0.1 0.4 0.1
v 0.2 0.1 0.1
v 0.2 0.2 0.1
v 0.1 0.3 0
v 0.1 0.4 0
v 0.2 0.3 0
v 0.2 0.4 0
v -0.2 0.2 0.1
v -0.2 0.4 0.1
v -0.1 0.2 0.1
v -0.1 0.3 0.1
v -0.1 0.4 0.1
v -0.1 0.3 0
v -0.1 0.4 0
v 0 0.3 0
v 0 0.4 0
v -0.2 0.1 -0.1
v -0.2 0.2 -0.1
v -0.1 0.1 -0.1
v -0.1 0.2 -0.1
v 0 0.3 -0.1
v 0 0.4 -0.1
v 0.1 0.1 -0.1
v 0.1 0.2 -0.1
v 0.2 0.1 -0.1
v 0.2 0.2 -0.1
v 0.2 0.3 -0.1
v 0.2 0.4 -0.1
v -0.2 0 -0.2
v -0.2 0.1 -0.2
v -0.1 0.1 -0.2
v -0.1 0.2 -0.2
v 0.1 0.1 -0.2
v 0.1 0.2 -0.2
v 0.2 0 -0.2
v 0.2 0.1 -0.2
v -0.2 0 0.2
v -0.1 0 0.2
v 0.2 0 0.2
v -0.2 0 0.1
v -0.1 0 0.1
v -0.2 0 -0.2
v 0.2 0 -0.2
v -0.1 0.3 0.2
v 0 0.3 0.2
v -0.1 0.3 0.1
v 0 0.3 0.1
v 0.1 0.3 0.1
v -0.1 0.3 0
v 0 0.3 0
v 0.1 0.3 0
v 0.2 0.3 0
v 0 0.3 -0.1
v 0.2 0.3 -0.1
v 0.1 0.1 0.2
v 0.2 0.1 0.2
v 0.1 0.1 0.1
v 0.2 0.1 0.1
v -0.2 0.1 -0.1
v -0.1 0.1 -0.1
v 0.1 0.1 -0.1
v 0.2 0.1 -0.1
v -0.2 0.1 -0.2
v -0.1 0.1 -0.2
v 0.1 0.1 -0.2
v 0.2 0.1 -0.2
v -0.1 0.2 0.2
v 0.1 0.2 0.2
v -0.2 0.2 0.1
v -0.1 0.2 0.1
v 0.1 0.2 0.1
v 0.2 0.2 0.1
v -0.2 0.2 -0.1
v -0.1 0.2 -0.1
v 0.1 0.2 -0.1
v 0.2 0.2 -0.1
v -0.1 0.2 -0.2
v 0.1 0.2 -0.2
v -0.2 0.4 0.2
v 0 0.4 0.2
v -0.2 0.4 0.1
v -0.1 0.4 0.1
v 0 0.4 0.1
v 0.1 0.4 0.1
v -0.1 0.4 0
v 0 0.4 0
v 0.1 0.4 0
v 0.2 0.4 0
v 0 0.4 -0.1
v 0.2 0.4 -0.1

# faces
f 4/2/1 2/2/1 1/2/1
f 4/1/1 3/1/1 2/1/1
f 5/1/1 3/1/1 4/1/1
f 6/1/1 3/1/1 5/1/1
f 7/2/1 4/2/1 1/2/1
f 7/4/1 5/4/1 4/4/1
f 8/4/1 5/4/1 7/4/1
f 9/2/1 7/2/1 1/2/1
f 10/2/1 7/2/1 9/2/1
f 13/4/1 12/4/1 11/4/1
f 14/4/1 12/4/1 13/4/1
f 17/2/1 16/2/1 15/2/1
f 18/2/1 16/2/1 17/2/1
f 21/2/1 20/2/1 19/2/1
f 22/2/1 20/2/1 21/2/1
f 23/2/2 24/2/2 25/2/2
f 25/2/2 24/2/2 26/2/2
f 27/2/2 28/2/2 29/2/2
f 29/2/2 28/2/2 30/2/2
f 31/4/2 32/4/2 35/4/2
f 35/4/2 32/4/2 36/4/2
f 33/4/2 34/4/2 37/4/2
f 37/4/2 34/4/2 38/4/2
f 39/2/2 40/2/2 41/2/2
f 41/2/2 40/2/2 42/2/2
f 43/1/2 44/1/2 45/1/2
f 45/1/2 44/1/2 46/1/2
f 46/1/2 44/1/2 47/1/2
f 47/1/2 44/1/2 48/1/2
f 46/4/2 47/4/2 49/4/2
f 49/4/2 47/4/2 50/4/2
f 51/2/2 52/2/2 53/2/2
f 53/2/2 52/2/2 54/2/2
f 57/2/3 56/2/3 55/2/3
f 58/2/3 56/2/3 57/2/3
f 59/2/3 56/2/3 58/2/3
f 60/2/3 56/2/3 59/2/3
f 61/2/3 56/2/3 60/2/3
f 62/2/3 56/2/3 61/2/3
f 63/1/3 58/1/3 57/1/3
f 63/4/3 59/4/3 58/4/3
f 64/4/3 59/4/3 63/4/3
f 65/1/3 63/1/3 57/1/3
f 66/1/3 63/1/3 65/1/3
f 71/2/3 68/2/3 67/2/3
f 72/2/3 68/2/3 71/2/3
f 73/4/3 70/4/3 69/4/3
f 74/4/3 70/4/3 73/4/3
f 77/2/3 76/2/3 75/2/3
f 78/2/3 76/2/3 77/2/3
f 79/2/4 80/2/4 81/2/4
f 81/2/4 80/2/4 82/2/4
f 82/2/4 80/2/4 83/2/4
f 84/2/4 85/2/4 86/2/4
f 86/2/4 85/2/4 87/2/4
f 88/4/4 89/4/4 90/4/4
f 90/4/4 89/4/4 91/4/4
f 94/4/4 95/4/4 96/4/4
f 96/4/4 95/4/4 97/4/4
f 92/2/4 93/2/4 98/2/4
f 98/2/4 93/2/4 99/2/4
f 100/1/4 101/1/4 102/1/4
f 100/1/4 102/1/4 104/1/4
f 102/4/4 103/4/4 104/4/4
f 104/4/4 103/4/4 105/4/4
f 100/1/4 104/1/4 106/1/4
f 106/1/4 104/1/4 107/1/4
f 111/2/5 109/2/5 108/2/5
f 112/1/5 110/1/5 109/1/5
f 112/2/5 109/2/5 111/2/5
f 113/1/5 112/1/5 111/1/5
f 114/1/5 110/1/5 112/1/5
f 114/1/5 112/1/5 113/1/5
f 117/2/5 116/2/5 115/2/5
f 118/2/5 116/2/5 117/2/5
f 120/2/5 118/2/5 117/2/5
f 120/2/5 119/2/5 118/2/5
f 121/2/5 119/2/5 120/2/5
f 122/2/5 119/2/5 121/2/5
f 124/2/5 123/2/5 122/2/5
f 124/2/5 122/2/5 121/2/5
f 125/2/5 123/2/5 124/2/5
f 126/1/6 127/1/6 128/1/6
f 128/1/6 127/1/6 129/1/6
f 130/1/6 131/1/6 134/1/6
f 134/1/6 131/1/6 135/1/6
f 132/1/6 133/1/6 136/1/6
f 136/1/6 133/1/6 137/1/6
f 138/4/6 139/4/6 141/4/6
f 141/4/6 139/4/6 142/4/6
f 140/4/6 141/4/6 144/4/6
f 141/3/6 142/3/6 145/3/6
f 144/4/6 141/4/6 145/4/6
f 142/4/6 143/4/6 146/4/6
f 145/3/6 142/3/6 146/3/6
f 146/4/6 143/4/6 147/4/6
f 145/4/6 146/4/6 148/4/6
f 148/4/6 146/4/6 149/4/6
f 150/2/6 151/2/6 152/2/6
f 152/2/6 151/2/6 153/2/6
f 153/2/6 151/2/6 154/2/6
f 154/2/6 155/2/6 156/2/6
f 153/2/6 154/2/6 156/2/6
f 156/2/6 155/2/6 157/2/6
f 157/2/6 155/2/6 158/2/6
f 158/2/6 159/2/6 160/2/6
f 157/2/6 158/2/6 160/2/6
f 160/2/6 159/2/6 161/2/6
